<ttFont>
<head>
    <!-- Most of this table will be recalculated by the compiler -->
    <tableVersion value="1.0"/>
    <fontRevision value="1.004"/>
    <checkSumAdjustment value="0xb7983330"/>
    <magicNumber value="0x5f0f3cf5"/>
    <flags value="00000000 00000011"/>
    <unitsPerEm value="1000"/>
    <created value="Mon Jun 15 05:18:06 2015"/>
    <modified value="Thu Jun  6 21:34:30 2019"/>
    <xMin value="-56"/>
    <yMin value="-549"/>
    <xMax value="1000"/>
    <yMax value="1323"/>
    <macStyle value="00000000 00000000"/>
    <lowestRecPPEM value="3"/>
    <fontDirectionHint value="2"/>
    <indexToLocFormat value="0"/>
    <glyphDataFormat value="0"/>
  </head>
        <CharString name=".notdef" fdSelectIndex="1">
          endchar
        </CharString>
        <CharString name="cid00001" fdSelectIndex="4">
          endchar
        </CharString>
        <CharString name="cid00002" fdSelectIndex="4">
          endchar
        </CharString>
        <CharString name="cid00003" fdSelectIndex="4">
          endchar
        </CharString>
        <CharString name="cid00004" fdSelectIndex="4">
          endchar
        </CharString>
        <CharString name="cid00005" fdSelectIndex="4">
          endchar
        </CharString>
        <CharString name="cid00006" fdSelectIndex="4">
          endchar
        </CharString>
        <CharString name="cid00007" fdSelectIndex="4">
          endchar
        </CharString>
        <CharString name="cid00008" fdSelectIndex="4">
          endchar
        </CharString>
        <CharString name="cid00009" fdSelectIndex="4">
          endchar
        </CharString>
        <CharString name="cid00010" fdSelectIndex="4">
          endchar
        </CharString>
        <CharString name="cid00011" fdSelectIndex="4">
          endchar
        </CharString>
        <CharString name="cid00012" fdSelectIndex="4">
          endchar
        </CharString>
        <CharString name="cid00013" fdSelectIndex="4">
          endchar
        </CharString>
        <CharString name="cid00014" fdSelectIndex="4">
          endchar
        </CharString>
        <CharString name="cid00015" fdSelectIndex="4">
          endchar
        </CharString>
        <CharString name="cid00016" fdSelectIndex="4">
          endchar
        </CharString>
        <CharString name="cid00017" fdSelectIndex="5">
          endchar
        </CharString>
        <CharString name="cid00018" fdSelectIndex="5">
          endchar
        </CharString>
        <CharString name="cid00019" fdSelectIndex="5">
          endchar
        </CharString>
        <CharString name="cid00020" fdSelectIndex="5">
          endchar
        </CharString>
        <CharString name="cid00021" fdSelectIndex="5">
          endchar
        </CharString>
        <CharString name="cid00022" fdSelectIndex="5">
          endchar
        </CharString>
        <CharString name="cid00023" fdSelectIndex="5">
          endchar
        </CharString>
        <CharString name="cid00024" fdSelectIndex="5">
          endchar
        </CharString>
        <CharString name="cid00025" fdSelectIndex="5">
          endchar
        </CharString>
        <CharString name="cid00026" fdSelectIndex="5">
          endchar
        </CharString>
        <CharString name="cid00027" fdSelectIndex="4">
          endchar
        </CharString>
        <CharString name="cid00028" fdSelectIndex="4">
          endchar
        </CharString>
        <CharString name="cid00029" fdSelectIndex="4">
          endchar
        </CharString>
        <CharString name="cid00030" fdSelectIndex="4">
          endchar
        </CharString>
        <CharString name="cid00031" fdSelectIndex="4">
          endchar
        </CharString>
        <CharString name="cid00032" fdSelectIndex="4">
          endchar
        </CharString>
        <CharString name="cid00033" fdSelectIndex="4">
          endchar
        </CharString>
        <CharString name="cid00034" fdSelectIndex="4">
          endchar
        </CharString>
        <CharString name="cid00035" fdSelectIndex="4">
          endchar
        </CharString>
        <CharString name="cid00036" fdSelectIndex="4">
          endchar
        </CharString>
        <CharString name="cid00037" fdSelectIndex="4">
          endchar
        </CharString>
        <CharString name="cid00038" fdSelectIndex="4">
          endchar
        </CharString>
        <CharString name="cid00039" fdSelectIndex="4">
          endchar
        </CharString>
        <CharString name="cid00040" fdSelectIndex="4">
          endchar
        </CharString>
        <CharString name="cid00041" fdSelectIndex="4">
          endchar
        </CharString>
        <CharString name="cid00042" fdSelectIndex="4">
          endchar
        </CharString>
        <CharString name="cid00043" fdSelectIndex="4">
          endchar
        </CharString>
        <CharString name="cid00044" fdSelectIndex="4">
          endchar
        </CharString>
        <CharString name="cid00045" fdSelectIndex="4">
          endchar
        </CharString>
        <CharString name="cid00046" fdSelectIndex="4">
          endchar
        </CharString>
        <CharString name="cid00047" fdSelectIndex="4">
          endchar
        </CharString>
        <CharString name="cid00048" fdSelectIndex="4">
          endchar
        </CharString>
        <CharString name="cid00049" fdSelectIndex="4">
          endchar
        </CharString>
        <CharString name="cid00050" fdSelectIndex="4">
          endchar
        </CharString>
        <CharString name="cid00051" fdSelectIndex="4">
          endchar
        </CharString>
        <CharString name="cid00052" fdSelectIndex="4">
          endchar
        </CharString>
        <CharString name="cid00053" fdSelectIndex="4">
          endchar
        </CharString>
        <CharString name="cid00054" fdSelectIndex="4">
          endchar
        </CharString>
        <CharString name="cid00055" fdSelectIndex="4">
          endchar
        </CharString>
        <CharString name="cid00056" fdSelectIndex="4">
          endchar
        </CharString>
        <CharString name="cid00057" fdSelectIndex="4">
          endchar
        </CharString>
        <CharString name="cid00058" fdSelectIndex="4">
          endchar
        </CharString>
        <CharString name="cid00059" fdSelectIndex="4">
          endchar
        </CharString>
        <CharString name="cid00060" fdSelectIndex="4">
          endchar
        </CharString>
        <CharString name="cid00061" fdSelectIndex="4">
          endchar
        </CharString>
        <CharString name="cid00062" fdSelectIndex="4">
          endchar
        </CharString>
        <CharString name="cid00063" fdSelectIndex="4">
          endchar
        </CharString>
        <CharString name="cid00064" fdSelectIndex="4">
          endchar
        </CharString>
        <CharString name="cid00065" fdSelectIndex="4">
          endchar
        </CharString>
        <CharString name="cid00066" fdSelectIndex="4">
          endchar
        </CharString>
        <CharString name="cid00067" fdSelectIndex="4">
          endchar
        </CharString>
        <CharString name="cid00068" fdSelectIndex="4">
          endchar
        </CharString>
        <CharString name="cid00069" fdSelectIndex="4">
          endchar
        </CharString>
        <CharString name="cid00070" fdSelectIndex="4">
          endchar
        </CharString>
        <CharString name="cid00071" fdSelectIndex="4">
          endchar
        </CharString>
        <CharString name="cid00072" fdSelectIndex="4">
          endchar
        </CharString>
        <CharString name="cid00073" fdSelectIndex="4">
          endchar
        </CharString>
        <CharString name="cid00074" fdSelectIndex="4">
          endchar
        </CharString>
        <CharString name="cid00075" fdSelectIndex="4">
          endchar
        </CharString>
        <CharString name="cid00076" fdSelectIndex="4">
          endchar
        </CharString>
        <CharString name="cid00077" fdSelectIndex="4">
          endchar
        </CharString>
        <CharString name="cid00078" fdSelectIndex="4">
          endchar
        </CharString>
        <CharString name="cid00079" fdSelectIndex="4">
          endchar
        </CharString>
        <CharString name="cid00080" fdSelectIndex="4">
          endchar
        </CharString>
        <CharString name="cid00081" fdSelectIndex="4">
          endchar
        </CharString>
        <CharString name="cid00082" fdSelectIndex="4">
          endchar
        </CharString>
        <CharString name="cid00083" fdSelectIndex="4">
          endchar
        </CharString>
        <CharString name="cid00084" fdSelectIndex="4">
          endchar
        </CharString>
        <CharString name="cid00085" fdSelectIndex="4">
          endchar
        </CharString>
        <CharString name="cid00086" fdSelectIndex="4">
          endchar
        </CharString>
        <CharString name="cid00087" fdSelectIndex="4">
          endchar
        </CharString>
        <CharString name="cid00088" fdSelectIndex="4">
          endchar
        </CharString>
        <CharString name="cid00089" fdSelectIndex="4">
          endchar
        </CharString>
        <CharString name="cid00090" fdSelectIndex="4">
          endchar
        </CharString>
        <CharString name="cid00091" fdSelectIndex="4">
          endchar
        </CharString>
        <CharString name="cid00092" fdSelectIndex="4">
          endchar
        </CharString>
        <CharString name="cid00093" fdSelectIndex="4">
          endchar
        </CharString>
        <CharString name="cid00094" fdSelectIndex="4">
          endchar
        </CharString>
        <CharString name="cid00095" fdSelectIndex="4">
          endchar
        </CharString>
        <CharString name="cid00096" fdSelectIndex="4">
          endchar
        </CharString>
        <CharString name="cid00097" fdSelectIndex="4">
          endchar
        </CharString>
        <CharString name="cid00098" fdSelectIndex="4">
          endchar
        </CharString>
        <CharString name="cid00099" fdSelectIndex="4">
          endchar
        </CharString>
        <CharString name="cid00100" fdSelectIndex="4">
          endchar
        </CharString>
        <CharString name="cid00101" fdSelectIndex="4">
          endchar
        </CharString>
        <CharString name="cid00102" fdSelectIndex="0">
          endchar
        </CharString>
        <CharString name="cid00103" fdSelectIndex="4">
          endchar
        </CharString>
        <CharString name="cid00104" fdSelectIndex="4">
          endchar
        </CharString>
        <CharString name="cid00105" fdSelectIndex="4">
          endchar
        </CharString>
        <CharString name="cid00106" fdSelectIndex="4">
          endchar
        </CharString>
        <CharString name="cid00107" fdSelectIndex="4">
          endchar
        </CharString>
        <CharString name="cid00108" fdSelectIndex="4">
          endchar
        </CharString>
        <CharString name="cid00109" fdSelectIndex="4">
          endchar
        </CharString>
        <CharString name="cid00110" fdSelectIndex="4">
          endchar
        </CharString>
        <CharString name="cid00111" fdSelectIndex="4">
          endchar
        </CharString>
        <CharString name="cid00112" fdSelectIndex="0">
          endchar
        </CharString>
        <CharString name="cid00113" fdSelectIndex="4">
          endchar
        </CharString>
        <CharString name="cid00114" fdSelectIndex="4">
          endchar
        </CharString>
        <CharString name="cid00115" fdSelectIndex="4">
          endchar
        </CharString>
        <CharString name="cid00116" fdSelectIndex="4">
          endchar
        </CharString>
        <CharString name="cid00117" fdSelectIndex="0">
          endchar
        </CharString>
        <CharString name="cid00118" fdSelectIndex="4">
          endchar
        </CharString>
        <CharString name="cid00119" fdSelectIndex="4">
          endchar
        </CharString>
        <CharString name="cid00120" fdSelectIndex="4">
          endchar
        </CharString>
        <CharString name="cid00121" fdSelectIndex="4">
          endchar
        </CharString>
        <CharString name="cid00122" fdSelectIndex="4">
          endchar
        </CharString>
        <CharString name="cid00123" fdSelectIndex="4">
          endchar
        </CharString>
        <CharString name="cid00124" fdSelectIndex="4">
          endchar
        </CharString>
        <CharString name="cid00125" fdSelectIndex="4">
          endchar
        </CharString>
        <CharString name="cid00126" fdSelectIndex="4">
          endchar
        </CharString>
        <CharString name="cid00127" fdSelectIndex="4">
          endchar
        </CharString>
        <CharString name="cid00128" fdSelectIndex="4">
          endchar
        </CharString>
        <CharString name="cid00129" fdSelectIndex="4">
          endchar
        </CharString>
        <CharString name="cid00130" fdSelectIndex="4">
          endchar
        </CharString>
        <CharString name="cid00131" fdSelectIndex="4">
          endchar
        </CharString>
        <CharString name="cid00132" fdSelectIndex="4">
          endchar
        </CharString>
        <CharString name="cid00133" fdSelectIndex="4">
          endchar
        </CharString>
        <CharString name="cid00134" fdSelectIndex="4">
          endchar
        </CharString>
        <CharString name="cid00135" fdSelectIndex="4">
          endchar
        </CharString>
        <CharString name="cid00136" fdSelectIndex="4">
          endchar
        </CharString>
        <CharString name="cid00137" fdSelectIndex="4">
          endchar
        </CharString>
        <CharString name="cid00138" fdSelectIndex="4">
          endchar
        </CharString>
        <CharString name="cid00139" fdSelectIndex="4">
          endchar
        </CharString>
        <CharString name="cid00140" fdSelectIndex="4">
          endchar
        </CharString>
        <CharString name="cid00141" fdSelectIndex="4">
          endchar
        </CharString>
        <CharString name="cid00142" fdSelectIndex="4">
          endchar
        </CharString>
        <CharString name="cid00143" fdSelectIndex="4">
          endchar
        </CharString>
        <CharString name="cid00144" fdSelectIndex="4">
          endchar
        </CharString>
        <CharString name="cid00145" fdSelectIndex="4">
          endchar
        </CharString>
        <CharString name="cid00146" fdSelectIndex="4">
          endchar
        </CharString>
        <CharString name="cid00147" fdSelectIndex="4">
          endchar
        </CharString>
        <CharString name="cid00148" fdSelectIndex="4">
          endchar
        </CharString>
        <CharString name="cid00149" fdSelectIndex="4">
          endchar
        </CharString>
        <CharString name="cid00150" fdSelectIndex="0">
          endchar
        </CharString>
        <CharString name="cid00151" fdSelectIndex="4">
          endchar
        </CharString>
        <CharString name="cid00152" fdSelectIndex="4">
          endchar
        </CharString>
        <CharString name="cid00153" fdSelectIndex="4">
          endchar
        </CharString>
        <CharString name="cid00154" fdSelectIndex="4">
          endchar
        </CharString>
        <CharString name="cid00155" fdSelectIndex="4">
          endchar
        </CharString>
        <CharString name="cid00156" fdSelectIndex="4">
          endchar
        </CharString>
        <CharString name="cid00157" fdSelectIndex="4">
          endchar
        </CharString>
        <CharString name="cid00158" fdSelectIndex="4">
          endchar
        </CharString>
        <CharString name="cid00159" fdSelectIndex="4">
          endchar
        </CharString>
        <CharString name="cid00160" fdSelectIndex="4">
          endchar
        </CharString>
        <CharString name="cid00161" fdSelectIndex="4">
          endchar
        </CharString>
        <CharString name="cid00162" fdSelectIndex="4">
          endchar
        </CharString>
        <CharString name="cid00163" fdSelectIndex="4">
          endchar
        </CharString>
        <CharString name="cid00164" fdSelectIndex="4">
          endchar
        </CharString>
        <CharString name="cid00165" fdSelectIndex="4">
          endchar
        </CharString>
        <CharString name="cid00166" fdSelectIndex="4">
          endchar
        </CharString>
        <CharString name="cid00167" fdSelectIndex="4">
          endchar
        </CharString>
        <CharString name="cid00168" fdSelectIndex="4">
          endchar
        </CharString>
        <CharString name="cid00169" fdSelectIndex="4">
          endchar
        </CharString>
        <CharString name="cid00170" fdSelectIndex="4">
          endchar
        </CharString>
        <CharString name="cid00171" fdSelectIndex="4">
          endchar
        </CharString>
        <CharString name="cid00172" fdSelectIndex="4">
          endchar
        </CharString>
        <CharString name="cid00173" fdSelectIndex="4">
          endchar
        </CharString>
        <CharString name="cid00174" fdSelectIndex="4">
          endchar
        </CharString>
        <CharString name="cid00175" fdSelectIndex="4">
          endchar
        </CharString>
        <CharString name="cid00176" fdSelectIndex="4">
          endchar
        </CharString>
        <CharString name="cid00177" fdSelectIndex="4">
          endchar
        </CharString>
        <CharString name="cid00178" fdSelectIndex="4">
          endchar
        </CharString>
        <CharString name="cid00179" fdSelectIndex="4">
          endchar
        </CharString>
        <CharString name="cid00180" fdSelectIndex="4">
          endchar
        </CharString>
        <CharString name="cid00181" fdSelectIndex="4">
          endchar
        </CharString>
        <CharString name="cid00182" fdSelectIndex="0">
          endchar
        </CharString>
        <CharString name="cid00183" fdSelectIndex="4">
          endchar
        </CharString>
        <CharString name="cid00184" fdSelectIndex="4">
          endchar
        </CharString>
        <CharString name="cid00185" fdSelectIndex="4">
          endchar
        </CharString>
        <CharString name="cid00186" fdSelectIndex="4">
          endchar
        </CharString>
        <CharString name="cid00187" fdSelectIndex="4">
          endchar
        </CharString>
        <CharString name="cid00188" fdSelectIndex="4">
          endchar
        </CharString>
        <CharString name="cid00189" fdSelectIndex="4">
          endchar
        </CharString>
        <CharString name="cid00190" fdSelectIndex="4">
          endchar
        </CharString>
        <CharString name="cid00191" fdSelectIndex="4">
          endchar
        </CharString>
        <CharString name="cid00192" fdSelectIndex="4">
          endchar
        </CharString>
        <CharString name="cid00193" fdSelectIndex="4">
          endchar
        </CharString>
        <CharString name="cid00194" fdSelectIndex="4">
          endchar
        </CharString>
        <CharString name="cid00195" fdSelectIndex="4">
          endchar
        </CharString>
        <CharString name="cid00196" fdSelectIndex="4">
          endchar
        </CharString>
        <CharString name="cid00197" fdSelectIndex="4">
          endchar
        </CharString>
        <CharString name="cid00198" fdSelectIndex="4">
          endchar
        </CharString>
        <CharString name="cid00199" fdSelectIndex="4">
          endchar
        </CharString>
        <CharString name="cid00200" fdSelectIndex="4">
          endchar
        </CharString>
        <CharString name="cid00201" fdSelectIndex="4">
          endchar
        </CharString>
        <CharString name="cid00202" fdSelectIndex="4">
          endchar
        </CharString>
        <CharString name="cid00203" fdSelectIndex="4">
          endchar
        </CharString>
        <CharString name="cid00204" fdSelectIndex="4">
          endchar
        </CharString>
        <CharString name="cid00205" fdSelectIndex="4">
          endchar
        </CharString>
        <CharString name="cid00206" fdSelectIndex="4">
          endchar
        </CharString>
        <CharString name="cid00207" fdSelectIndex="4">
          endchar
        </CharString>
        <CharString name="cid00208" fdSelectIndex="4">
          endchar
        </CharString>
        <CharString name="cid00209" fdSelectIndex="4">
          endchar
        </CharString>
        <CharString name="cid00210" fdSelectIndex="4">
          endchar
        </CharString>
        <CharString name="cid00211" fdSelectIndex="4">
          endchar
        </CharString>
        <CharString name="cid00212" fdSelectIndex="4">
          endchar
        </CharString>
        <CharString name="cid00213" fdSelectIndex="4">
          endchar
        </CharString>
        <CharString name="cid00214" fdSelectIndex="4">
          endchar
        </CharString>
        <CharString name="cid00215" fdSelectIndex="4">
          endchar
        </CharString>
        <CharString name="cid00216" fdSelectIndex="4">
          endchar
        </CharString>
        <CharString name="cid00217" fdSelectIndex="4">
          endchar
        </CharString>
        <CharString name="cid00218" fdSelectIndex="4">
          endchar
        </CharString>
        <CharString name="cid00219" fdSelectIndex="4">
          endchar
        </CharString>
        <CharString name="cid00220" fdSelectIndex="4">
          endchar
        </CharString>
        <CharString name="cid00221" fdSelectIndex="4">
          endchar
        </CharString>
        <CharString name="cid00222" fdSelectIndex="4">
          endchar
        </CharString>
        <CharString name="cid00223" fdSelectIndex="4">
          endchar
        </CharString>
        <CharString name="cid00224" fdSelectIndex="4">
          endchar
        </CharString>
        <CharString name="cid00225" fdSelectIndex="4">
          endchar
        </CharString>
        <CharString name="cid00226" fdSelectIndex="4">
          endchar
        </CharString>
        <CharString name="cid00227" fdSelectIndex="4">
          endchar
        </CharString>
        <CharString name="cid00228" fdSelectIndex="4">
          endchar
        </CharString>
        <CharString name="cid00229" fdSelectIndex="4">
          endchar
        </CharString>
        <CharString name="cid00230" fdSelectIndex="4">
          endchar
        </CharString>
        <CharString name="cid00231" fdSelectIndex="4">
          endchar
        </CharString>
        <CharString name="cid00232" fdSelectIndex="4">
          endchar
        </CharString>
        <CharString name="cid00233" fdSelectIndex="4">
          endchar
        </CharString>
        <CharString name="cid00234" fdSelectIndex="4">
          endchar
        </CharString>
        <CharString name="cid00235" fdSelectIndex="4">
          endchar
        </CharString>
        <CharString name="cid00236" fdSelectIndex="4">
          endchar
        </CharString>
        <CharString name="cid00237" fdSelectIndex="4">
          endchar
        </CharString>
        <CharString name="cid00238" fdSelectIndex="4">
          endchar
        </CharString>
        <CharString name="cid00239" fdSelectIndex="4">
          endchar
        </CharString>
        <CharString name="cid00240" fdSelectIndex="4">
          endchar
        </CharString>
        <CharString name="cid00241" fdSelectIndex="4">
          endchar
        </CharString>
        <CharString name="cid00242" fdSelectIndex="4">
          endchar
        </CharString>
        <CharString name="cid00243" fdSelectIndex="4">
          endchar
        </CharString>
        <CharString name="cid00244" fdSelectIndex="4">
          endchar
        </CharString>
        <CharString name="cid00245" fdSelectIndex="4">
          endchar
        </CharString>
        <CharString name="cid00246" fdSelectIndex="0">
          endchar
        </CharString>
        <CharString name="cid00247" fdSelectIndex="0">
          endchar
        </CharString>
        <CharString name="cid00248" fdSelectIndex="0">
          endchar
        </CharString>
        <CharString name="cid00249" fdSelectIndex="0">
          endchar
        </CharString>
        <CharString name="cid00250" fdSelectIndex="0">
          endchar
        </CharString>
        <CharString name="cid00251" fdSelectIndex="4">
          endchar
        </CharString>
        <CharString name="cid00252" fdSelectIndex="4">
          endchar
        </CharString>
        <CharString name="cid00253" fdSelectIndex="4">
          endchar
        </CharString>
        <CharString name="cid00254" fdSelectIndex="4">
          endchar
        </CharString>
        <CharString name="cid00255" fdSelectIndex="4">
          endchar
        </CharString>
        <CharString name="cid00256" fdSelectIndex="4">
          endchar
        </CharString>
        <CharString name="cid00257" fdSelectIndex="4">
          endchar
        </CharString>
        <CharString name="cid00258" fdSelectIndex="4">
          endchar
        </CharString>
        <CharString name="cid00259" fdSelectIndex="4">
          endchar
        </CharString>
        <CharString name="cid00260" fdSelectIndex="4">
          endchar
        </CharString>
        <CharString name="cid00261" fdSelectIndex="4">
          endchar
        </CharString>
        <CharString name="cid00262" fdSelectIndex="4">
          endchar
        </CharString>
        <CharString name="cid00263" fdSelectIndex="4">
          endchar
        </CharString>
        <CharString name="cid00264" fdSelectIndex="4">
          endchar
        </CharString>
        <CharString name="cid00265" fdSelectIndex="4">
          endchar
        </CharString>
        <CharString name="cid00266" fdSelectIndex="4">
          endchar
        </CharString>
        <CharString name="cid00267" fdSelectIndex="4">
          endchar
        </CharString>
        <CharString name="cid00268" fdSelectIndex="4">
          endchar
        </CharString>
        <CharString name="cid00269" fdSelectIndex="4">
          endchar
        </CharString>
        <CharString name="cid00270" fdSelectIndex="4">
          endchar
        </CharString>
        <CharString name="cid00271" fdSelectIndex="4">
          endchar
        </CharString>
        <CharString name="cid00272" fdSelectIndex="4">
          endchar
        </CharString>
        <CharString name="cid00273" fdSelectIndex="4">
          endchar
        </CharString>
        <CharString name="cid00274" fdSelectIndex="4">
          endchar
        </CharString>
        <CharString name="cid00275" fdSelectIndex="4">
          endchar
        </CharString>
        <CharString name="cid00276" fdSelectIndex="4">
          endchar
        </CharString>
        <CharString name="cid00277" fdSelectIndex="4">
          endchar
        </CharString>
        <CharString name="cid00278" fdSelectIndex="4">
          endchar
        </CharString>
        <CharString name="cid00279" fdSelectIndex="4">
          endchar
        </CharString>
        <CharString name="cid00280" fdSelectIndex="4">
          endchar
        </CharString>
        <CharString name="cid00281" fdSelectIndex="4">
          endchar
        </CharString>
        <CharString name="cid00282" fdSelectIndex="4">
          endchar
        </CharString>
        <CharString name="cid00283" fdSelectIndex="4">
          endchar
        </CharString>
        <CharString name="cid00284" fdSelectIndex="4">
          endchar
        </CharString>
        <CharString name="cid00285" fdSelectIndex="4">
          endchar
        </CharString>
        <CharString name="cid00286" fdSelectIndex="4">
          endchar
        </CharString>
        <CharString name="cid00287" fdSelectIndex="4">
          endchar
        </CharString>
        <CharString name="cid00288" fdSelectIndex="4">
          endchar
        </CharString>
        <CharString name="cid00289" fdSelectIndex="4">
          endchar
        </CharString>
        <CharString name="cid00290" fdSelectIndex="4">
          endchar
        </CharString>
        <CharString name="cid00291" fdSelectIndex="4">
          endchar
        </CharString>
        <CharString name="cid00292" fdSelectIndex="4">
          endchar
        </CharString>
        <CharString name="cid00293" fdSelectIndex="4">
          endchar
        </CharString>
        <CharString name="cid00294" fdSelectIndex="4">
          endchar
        </CharString>
        <CharString name="cid00295" fdSelectIndex="4">
          endchar
        </CharString>
        <CharString name="cid00296" fdSelectIndex="4">
          endchar
        </CharString>
        <CharString name="cid00297" fdSelectIndex="4">
          endchar
        </CharString>
        <CharString name="cid00298" fdSelectIndex="4">
          endchar
        </CharString>
        <CharString name="cid00299" fdSelectIndex="4">
          endchar
        </CharString>
        <CharString name="cid00300" fdSelectIndex="4">
          endchar
        </CharString>
        <CharString name="cid00301" fdSelectIndex="4">
          endchar
        </CharString>
        <CharString name="cid00302" fdSelectIndex="4">
          endchar
        </CharString>
        <CharString name="cid00303" fdSelectIndex="4">
          endchar
        </CharString>
        <CharString name="cid00304" fdSelectIndex="4">
          endchar
        </CharString>
        <CharString name="cid00305" fdSelectIndex="4">
          endchar
        </CharString>
        <CharString name="cid00306" fdSelectIndex="4">
          endchar
        </CharString>
        <CharString name="cid00307" fdSelectIndex="4">
          endchar
        </CharString>
        <CharString name="cid00308" fdSelectIndex="4">
          endchar
        </CharString>
        <CharString name="cid00309" fdSelectIndex="4">
          endchar
        </CharString>
        <CharString name="cid00310" fdSelectIndex="4">
          endchar
        </CharString>
        <CharString name="cid00311" fdSelectIndex="4">
          endchar
        </CharString>
        <CharString name="cid00312" fdSelectIndex="4">
          endchar
        </CharString>
        <CharString name="cid00313" fdSelectIndex="4">
          endchar
        </CharString>
        <CharString name="cid00314" fdSelectIndex="4">
          endchar
        </CharString>
        <CharString name="cid00315" fdSelectIndex="4">
          endchar
        </CharString>
        <CharString name="cid00316" fdSelectIndex="4">
          endchar
        </CharString>
        <CharString name="cid00317" fdSelectIndex="4">
          endchar
        </CharString>
        <CharString name="cid00318" fdSelectIndex="4">
          endchar
        </CharString>
        <CharString name="cid00319" fdSelectIndex="4">
          endchar
        </CharString>
        <CharString name="cid00320" fdSelectIndex="4">
          endchar
        </CharString>
        <CharString name="cid00321" fdSelectIndex="4">
          endchar
        </CharString>
        <CharString name="cid00322" fdSelectIndex="4">
          endchar
        </CharString>
        <CharString name="cid00323" fdSelectIndex="4">
          endchar
        </CharString>
        <CharString name="cid00324" fdSelectIndex="4">
          endchar
        </CharString>
        <CharString name="cid00325" fdSelectIndex="4">
          endchar
        </CharString>
        <CharString name="cid00326" fdSelectIndex="4">
          endchar
        </CharString>
        <CharString name="cid00327" fdSelectIndex="4">
          endchar
        </CharString>
        <CharString name="cid00328" fdSelectIndex="4">
          endchar
        </CharString>
        <CharString name="cid00329" fdSelectIndex="4">
          endchar
        </CharString>
        <CharString name="cid00330" fdSelectIndex="4">
          endchar
        </CharString>
        <CharString name="cid00331" fdSelectIndex="4">
          endchar
        </CharString>
        <CharString name="cid00332" fdSelectIndex="4">
          endchar
        </CharString>
        <CharString name="cid00333" fdSelectIndex="4">
          endchar
        </CharString>
        <CharString name="cid00334" fdSelectIndex="4">
          endchar
        </CharString>
        <CharString name="cid00335" fdSelectIndex="4">
          endchar
        </CharString>
        <CharString name="cid00336" fdSelectIndex="4">
          endchar
        </CharString>
        <CharString name="cid00337" fdSelectIndex="4">
          endchar
        </CharString>
        <CharString name="cid00338" fdSelectIndex="4">
          endchar
        </CharString>
        <CharString name="cid00339" fdSelectIndex="4">
          endchar
        </CharString>
        <CharString name="cid00340" fdSelectIndex="4">
          endchar
        </CharString>
        <CharString name="cid00341" fdSelectIndex="4">
          endchar
        </CharString>
        <CharString name="cid00342" fdSelectIndex="4">
          endchar
        </CharString>
        <CharString name="cid00343" fdSelectIndex="4">
          endchar
        </CharString>
        <CharString name="cid00344" fdSelectIndex="4">
          endchar
        </CharString>
        <CharString name="cid00345" fdSelectIndex="4">
          endchar
        </CharString>
        <CharString name="cid00346" fdSelectIndex="4">
          endchar
        </CharString>
        <CharString name="cid00347" fdSelectIndex="4">
          endchar
        </CharString>
        <CharString name="cid00348" fdSelectIndex="4">
          endchar
        </CharString>
        <CharString name="cid00349" fdSelectIndex="4">
          endchar
        </CharString>
        <CharString name="cid00350" fdSelectIndex="4">
          endchar
        </CharString>
        <CharString name="cid00351" fdSelectIndex="4">
          endchar
        </CharString>
        <CharString name="cid00352" fdSelectIndex="4">
          endchar
        </CharString>
        <CharString name="cid00353" fdSelectIndex="4">
          endchar
        </CharString>
        <CharString name="cid00354" fdSelectIndex="4">
          endchar
        </CharString>
        <CharString name="cid00355" fdSelectIndex="4">
          endchar
        </CharString>
        <CharString name="cid00356" fdSelectIndex="4">
          endchar
        </CharString>
        <CharString name="cid00357" fdSelectIndex="4">
          endchar
        </CharString>
        <CharString name="cid00358" fdSelectIndex="4">
          endchar
        </CharString>
        <CharString name="cid00359" fdSelectIndex="4">
          endchar
        </CharString>
        <CharString name="cid00360" fdSelectIndex="4">
          endchar
        </CharString>
        <CharString name="cid00361" fdSelectIndex="4">
          endchar
        </CharString>
        <CharString name="cid00362" fdSelectIndex="4">
          endchar
        </CharString>
        <CharString name="cid00363" fdSelectIndex="4">
          endchar
        </CharString>
        <CharString name="cid00364" fdSelectIndex="4">
          endchar
        </CharString>
        <CharString name="cid00621" fdSelectIndex="4">
          endchar
        </CharString>
        <CharString name="cid00622" fdSelectIndex="4">
          endchar
        </CharString>
        <CharString name="cid00623" fdSelectIndex="4">
          endchar
        </CharString>
        <CharString name="cid00624" fdSelectIndex="4">
          endchar
        </CharString>
        <CharString name="cid00625" fdSelectIndex="4">
          endchar
        </CharString>
        <CharString name="cid00626" fdSelectIndex="4">
          endchar
        </CharString>
        <CharString name="cid00627" fdSelectIndex="4">
          endchar
        </CharString>
        <CharString name="cid00628" fdSelectIndex="4">
          endchar
        </CharString>
        <CharString name="cid00629" fdSelectIndex="4">
          endchar
        </CharString>
        <CharString name="cid00630" fdSelectIndex="4">
          endchar
        </CharString>
        <CharString name="cid00631" fdSelectIndex="4">
          endchar
        </CharString>
        <CharString name="cid00632" fdSelectIndex="4">
          endchar
        </CharString>
        <CharString name="cid00633" fdSelectIndex="4">
          endchar
        </CharString>
        <CharString name="cid00634" fdSelectIndex="4">
          endchar
        </CharString>
        <CharString name="cid00635" fdSelectIndex="4">
          endchar
        </CharString>
        <CharString name="cid00636" fdSelectIndex="4">
          endchar
        </CharString>
        <CharString name="cid00637" fdSelectIndex="4">
          endchar
        </CharString>
        <CharString name="cid00638" fdSelectIndex="4">
          endchar
        </CharString>
        <CharString name="cid00639" fdSelectIndex="4">
          endchar
        </CharString>
        <CharString name="cid00640" fdSelectIndex="4">
          endchar
        </CharString>
        <CharString name="cid00641" fdSelectIndex="4">
          endchar
        </CharString>
        <CharString name="cid00642" fdSelectIndex="4">
          endchar
        </CharString>
        <CharString name="cid00643" fdSelectIndex="4">
          endchar
        </CharString>
        <CharString name="cid00644" fdSelectIndex="4">
          endchar
        </CharString>
        <CharString name="cid00645" fdSelectIndex="4">
          endchar
        </CharString>
        <CharString name="cid00646" fdSelectIndex="4">
          endchar
        </CharString>
        <CharString name="cid00647" fdSelectIndex="4">
          endchar
        </CharString>
        <CharString name="cid00648" fdSelectIndex="4">
          endchar
        </CharString>
        <CharString name="cid00649" fdSelectIndex="4">
          endchar
        </CharString>
        <CharString name="cid00650" fdSelectIndex="4">
          endchar
        </CharString>
        <CharString name="cid00651" fdSelectIndex="4">
          endchar
        </CharString>
        <CharString name="cid00652" fdSelectIndex="4">
          endchar
        </CharString>
        <CharString name="cid00653" fdSelectIndex="4">
          endchar
        </CharString>
        <CharString name="cid00654" fdSelectIndex="4">
          endchar
        </CharString>
        <CharString name="cid00655" fdSelectIndex="4">
          endchar
        </CharString>
        <CharString name="cid00656" fdSelectIndex="4">
          endchar
        </CharString>
        <CharString name="cid00657" fdSelectIndex="4">
          endchar
        </CharString>
        <CharString name="cid00658" fdSelectIndex="4">
          endchar
        </CharString>
        <CharString name="cid00659" fdSelectIndex="4">
          endchar
        </CharString>
        <CharString name="cid00660" fdSelectIndex="4">
          endchar
        </CharString>
        <CharString name="cid00661" fdSelectIndex="4">
          endchar
        </CharString>
        <CharString name="cid00662" fdSelectIndex="4">
          endchar
        </CharString>
        <CharString name="cid00663" fdSelectIndex="4">
          endchar
        </CharString>
        <CharString name="cid00664" fdSelectIndex="4">
          endchar
        </CharString>
        <CharString name="cid00665" fdSelectIndex="4">
          endchar
        </CharString>
        <CharString name="cid00666" fdSelectIndex="4">
          endchar
        </CharString>
        <CharString name="cid00667" fdSelectIndex="4">
          endchar
        </CharString>
        <CharString name="cid00668" fdSelectIndex="4">
          endchar
        </CharString>
        <CharString name="cid00669" fdSelectIndex="4">
          endchar
        </CharString>
        <CharString name="cid00670" fdSelectIndex="4">
          endchar
        </CharString>
        <CharString name="cid00671" fdSelectIndex="4">
          endchar
        </CharString>
        <CharString name="cid00672" fdSelectIndex="4">
          endchar
        </CharString>
        <CharString name="cid00673" fdSelectIndex="4">
          endchar
        </CharString>
        <CharString name="cid00674" fdSelectIndex="4">
          endchar
        </CharString>
        <CharString name="cid00675" fdSelectIndex="4">
          endchar
        </CharString>
        <CharString name="cid00676" fdSelectIndex="4">
          endchar
        </CharString>
        <CharString name="cid00677" fdSelectIndex="4">
          endchar
        </CharString>
        <CharString name="cid00678" fdSelectIndex="4">
          endchar
        </CharString>
        <CharString name="cid00679" fdSelectIndex="4">
          endchar
        </CharString>
        <CharString name="cid00680" fdSelectIndex="4">
          endchar
        </CharString>
        <CharString name="cid00681" fdSelectIndex="4">
          endchar
        </CharString>
        <CharString name="cid00682" fdSelectIndex="4">
          endchar
        </CharString>
        <CharString name="cid00683" fdSelectIndex="4">
          endchar
        </CharString>
        <CharString name="cid00684" fdSelectIndex="4">
          endchar
        </CharString>
        <CharString name="cid00685" fdSelectIndex="4">
          endchar
        </CharString>
        <CharString name="cid00686" fdSelectIndex="4">
          endchar
        </CharString>
        <CharString name="cid00687" fdSelectIndex="4">
          endchar
        </CharString>
        <CharString name="cid00688" fdSelectIndex="4">
          endchar
        </CharString>
        <CharString name="cid00689" fdSelectIndex="4">
          endchar
        </CharString>
        <CharString name="cid00690" fdSelectIndex="4">
          endchar
        </CharString>
        <CharString name="cid00691" fdSelectIndex="4">
          endchar
        </CharString>
        <CharString name="cid00692" fdSelectIndex="4">
          endchar
        </CharString>
        <CharString name="cid00693" fdSelectIndex="4">
          endchar
        </CharString>
        <CharString name="cid00694" fdSelectIndex="4">
          endchar
        </CharString>
        <CharString name="cid00695" fdSelectIndex="4">
          endchar
        </CharString>
        <CharString name="cid00696" fdSelectIndex="4">
          endchar
        </CharString>
        <CharString name="cid00697" fdSelectIndex="4">
          endchar
        </CharString>
        <CharString name="cid00698" fdSelectIndex="4">
          endchar
        </CharString>
        <CharString name="cid00699" fdSelectIndex="4">
          endchar
        </CharString>
        <CharString name="cid00700" fdSelectIndex="4">
          endchar
        </CharString>
        <CharString name="cid00701" fdSelectIndex="4">
          endchar
        </CharString>
        <CharString name="cid00702" fdSelectIndex="4">
          endchar
        </CharString>
        <CharString name="cid00703" fdSelectIndex="4">
          endchar
        </CharString>
        <CharString name="cid00704" fdSelectIndex="4">
          endchar
        </CharString>
        <CharString name="cid00705" fdSelectIndex="4">
          endchar
        </CharString>
        <CharString name="cid00706" fdSelectIndex="4">
          endchar
        </CharString>
        <CharString name="cid00707" fdSelectIndex="4">
          endchar
        </CharString>
        <CharString name="cid00708" fdSelectIndex="4">
          endchar
        </CharString>
        <CharString name="cid00709" fdSelectIndex="4">
          endchar
        </CharString>
        <CharString name="cid00710" fdSelectIndex="4">
          endchar
        </CharString>
        <CharString name="cid00711" fdSelectIndex="4">
          endchar
        </CharString>
        <CharString name="cid00712" fdSelectIndex="4">
          endchar
        </CharString>
        <CharString name="cid01354" fdSelectIndex="2">
          endchar
        </CharString>
        <CharString name="cid01355" fdSelectIndex="2">
          endchar
        </CharString>
        <CharString name="cid01361" fdSelectIndex="2">
          endchar
        </CharString>
        <CharString name="cid01364" fdSelectIndex="2">
          endchar
        </CharString>
        <CharString name="cid01389" fdSelectIndex="0">
          endchar
        </CharString>
        <CharString name="cid01390" fdSelectIndex="0">
          endchar
        </CharString>
        <CharString name="cid01391" fdSelectIndex="0">
          endchar
        </CharString>
        <CharString name="cid01392" fdSelectIndex="0">
          endchar
        </CharString>
        <CharString name="cid01393" fdSelectIndex="0">
          endchar
        </CharString>
        <CharString name="cid01394" fdSelectIndex="0">
          endchar
        </CharString>
        <CharString name="cid01395" fdSelectIndex="0">
          endchar
        </CharString>
        <CharString name="cid01396" fdSelectIndex="0">
          endchar
        </CharString>
        <CharString name="cid01397" fdSelectIndex="0">
          endchar
        </CharString>
        <CharString name="cid01398" fdSelectIndex="0">
          endchar
        </CharString>
        <CharString name="cid01399" fdSelectIndex="0">
          endchar
        </CharString>
        <CharString name="cid01400" fdSelectIndex="0">
          endchar
        </CharString>
        <CharString name="cid01401" fdSelectIndex="0">
          endchar
        </CharString>
        <CharString name="cid01402" fdSelectIndex="0">
          endchar
        </CharString>
        <CharString name="cid01403" fdSelectIndex="0">
          endchar
        </CharString>
        <CharString name="cid01404" fdSelectIndex="0">
          endchar
        </CharString>
        <CharString name="cid01405" fdSelectIndex="0">
          endchar
        </CharString>
        <CharString name="cid01406" fdSelectIndex="0">
          endchar
        </CharString>
        <CharString name="cid01407" fdSelectIndex="0">
          endchar
        </CharString>
        <CharString name="cid01408" fdSelectIndex="0">
          endchar
        </CharString>
        <CharString name="cid01409" fdSelectIndex="0">
          endchar
        </CharString>
        <CharString name="cid01410" fdSelectIndex="0">
          endchar
        </CharString>
        <CharString name="cid01411" fdSelectIndex="0">
          endchar
        </CharString>
        <CharString name="cid01412" fdSelectIndex="0">
          endchar
        </CharString>
        <CharString name="cid01413" fdSelectIndex="0">
          endchar
        </CharString>
        <CharString name="cid01414" fdSelectIndex="0">
          endchar
        </CharString>
        <CharString name="cid01415" fdSelectIndex="0">
          endchar
        </CharString>
        <CharString name="cid01416" fdSelectIndex="0">
          endchar
        </CharString>
        <CharString name="cid01417" fdSelectIndex="0">
          endchar
        </CharString>
        <CharString name="cid01418" fdSelectIndex="0">
          endchar
        </CharString>
        <CharString name="cid01419" fdSelectIndex="0">
          endchar
        </CharString>
        <CharString name="cid01420" fdSelectIndex="0">
          endchar
        </CharString>
        <CharString name="cid01437" fdSelectIndex="0">
          endchar
        </CharString>
        <CharString name="cid01438" fdSelectIndex="0">
          endchar
        </CharString>
        <CharString name="cid01439" fdSelectIndex="0">
          endchar
        </CharString>
        <CharString name="cid01440" fdSelectIndex="0">
          endchar
        </CharString>
        <CharString name="cid01441" fdSelectIndex="0">
          endchar
        </CharString>
        <CharString name="cid01442" fdSelectIndex="0">
          endchar
        </CharString>
        <CharString name="cid01448" fdSelectIndex="0">
          endchar
        </CharString>
        <CharString name="cid01449" fdSelectIndex="0">
          endchar
        </CharString>
        <CharString name="cid01450" fdSelectIndex="0">
          endchar
        </CharString>
        <CharString name="cid01453" fdSelectIndex="3">
          endchar
        </CharString>
        <CharString name="cid01454" fdSelectIndex="3">
          endchar
        </CharString>
        <CharString name="cid01455" fdSelectIndex="3">
          endchar
        </CharString>
        <CharString name="cid01456" fdSelectIndex="3">
          endchar
        </CharString>
        <CharString name="cid01457" fdSelectIndex="3">
          endchar
        </CharString>
        <CharString name="cid01458" fdSelectIndex="3">
          endchar
        </CharString>
        <CharString name="cid01459" fdSelectIndex="3">
          endchar
        </CharString>
        <CharString name="cid01460" fdSelectIndex="3">
          endchar
        </CharString>
        <CharString name="cid01461" fdSelectIndex="3">
          endchar
        </CharString>
        <CharString name="cid01462" fdSelectIndex="3">
          endchar
        </CharString>
        <CharString name="cid01463" fdSelectIndex="3">
          endchar
        </CharString>
        <CharString name="cid01464" fdSelectIndex="3">
          endchar
        </CharString>
        <CharString name="cid01465" fdSelectIndex="3">
          endchar
        </CharString>
        <CharString name="cid01466" fdSelectIndex="3">
          endchar
        </CharString>
        <CharString name="cid01467" fdSelectIndex="3">
          endchar
        </CharString>
        <CharString name="cid01468" fdSelectIndex="3">
          endchar
        </CharString>
        <CharString name="cid01469" fdSelectIndex="3">
          endchar
        </CharString>
        <CharString name="cid01470" fdSelectIndex="3">
          endchar
        </CharString>
        <CharString name="cid01471" fdSelectIndex="3">
          endchar
        </CharString>
        <CharString name="cid01472" fdSelectIndex="3">
          endchar
        </CharString>
        <CharString name="cid01473" fdSelectIndex="3">
          endchar
        </CharString>
        <CharString name="cid01474" fdSelectIndex="3">
          endchar
        </CharString>
        <CharString name="cid01475" fdSelectIndex="3">
          endchar
        </CharString>
        <CharString name="cid01476" fdSelectIndex="3">
          endchar
        </CharString>
        <CharString name="cid01477" fdSelectIndex="3">
          endchar
        </CharString>
        <CharString name="cid01478" fdSelectIndex="3">
          endchar
        </CharString>
        <CharString name="cid01479" fdSelectIndex="3">
          endchar
        </CharString>
        <CharString name="cid01480" fdSelectIndex="3">
          endchar
        </CharString>
        <CharString name="cid01481" fdSelectIndex="3">
          endchar
        </CharString>
        <CharString name="cid01482" fdSelectIndex="3">
          endchar
        </CharString>
        <CharString name="cid01483" fdSelectIndex="3">
          endchar
        </CharString>
        <CharString name="cid01484" fdSelectIndex="3">
          endchar
        </CharString>
        <CharString name="cid01485" fdSelectIndex="3">
          endchar
        </CharString>
        <CharString name="cid01486" fdSelectIndex="3">
          endchar
        </CharString>
        <CharString name="cid01487" fdSelectIndex="3">
          endchar
        </CharString>
        <CharString name="cid01488" fdSelectIndex="3">
          endchar
        </CharString>
        <CharString name="cid01489" fdSelectIndex="3">
          endchar
        </CharString>
        <CharString name="cid01490" fdSelectIndex="3">
          endchar
        </CharString>
        <CharString name="cid01491" fdSelectIndex="3">
          endchar
        </CharString>
        <CharString name="cid01492" fdSelectIndex="3">
          endchar
        </CharString>
        <CharString name="cid01493" fdSelectIndex="3">
          endchar
        </CharString>
        <CharString name="cid01494" fdSelectIndex="3">
          endchar
        </CharString>
        <CharString name="cid01495" fdSelectIndex="3">
          endchar
        </CharString>
        <CharString name="cid01496" fdSelectIndex="3">
          endchar
        </CharString>
        <CharString name="cid01497" fdSelectIndex="3">
          endchar
        </CharString>
        <CharString name="cid01498" fdSelectIndex="3">
          endchar
        </CharString>
        <CharString name="cid01499" fdSelectIndex="3">
          endchar
        </CharString>
        <CharString name="cid01500" fdSelectIndex="3">
          endchar
        </CharString>
        <CharString name="cid01501" fdSelectIndex="3">
          endchar
        </CharString>
        <CharString name="cid01502" fdSelectIndex="3">
          endchar
        </CharString>
        <CharString name="cid01503" fdSelectIndex="3">
          endchar
        </CharString>
        <CharString name="cid01504" fdSelectIndex="3">
          endchar
        </CharString>
        <CharString name="cid01505" fdSelectIndex="3">
          endchar
        </CharString>
        <CharString name="cid01506" fdSelectIndex="3">
          endchar
        </CharString>
        <CharString name="cid01507" fdSelectIndex="3">
          endchar
        </CharString>
        <CharString name="cid01508" fdSelectIndex="3">
          endchar
        </CharString>
        <CharString name="cid01509" fdSelectIndex="3">
          endchar
        </CharString>
        <CharString name="cid01510" fdSelectIndex="3">
          endchar
        </CharString>
        <CharString name="cid01511" fdSelectIndex="3">
          endchar
        </CharString>
        <CharString name="cid01512" fdSelectIndex="3">
          endchar
        </CharString>
        <CharString name="cid01513" fdSelectIndex="3">
          endchar
        </CharString>
        <CharString name="cid01514" fdSelectIndex="3">
          endchar
        </CharString>
        <CharString name="cid01515" fdSelectIndex="3">
          endchar
        </CharString>
        <CharString name="cid01516" fdSelectIndex="3">
          endchar
        </CharString>
        <CharString name="cid01517" fdSelectIndex="3">
          endchar
        </CharString>
        <CharString name="cid01518" fdSelectIndex="3">
          endchar
        </CharString>
        <CharString name="cid01519" fdSelectIndex="3">
          endchar
        </CharString>
        <CharString name="cid01520" fdSelectIndex="3">
          endchar
        </CharString>
        <CharString name="cid01521" fdSelectIndex="3">
          endchar
        </CharString>
        <CharString name="cid01522" fdSelectIndex="3">
          endchar
        </CharString>
        <CharString name="cid01523" fdSelectIndex="3">
          endchar
        </CharString>
        <CharString name="cid01524" fdSelectIndex="3">
          endchar
        </CharString>
        <CharString name="cid01525" fdSelectIndex="3">
          endchar
        </CharString>
        <CharString name="cid01526" fdSelectIndex="3">
          endchar
        </CharString>
        <CharString name="cid01527" fdSelectIndex="3">
          endchar
        </CharString>
        <CharString name="cid01528" fdSelectIndex="3">
          endchar
        </CharString>
        <CharString name="cid01529" fdSelectIndex="3">
          endchar
        </CharString>
        <CharString name="cid01530" fdSelectIndex="3">
          endchar
        </CharString>
        <CharString name="cid01531" fdSelectIndex="3">
          endchar
        </CharString>
        <CharString name="cid01532" fdSelectIndex="3">
          endchar
        </CharString>
        <CharString name="cid01533" fdSelectIndex="3">
          endchar
        </CharString>
        <CharString name="cid01534" fdSelectIndex="3">
          endchar
        </CharString>
        <CharString name="cid01535" fdSelectIndex="3">
          endchar
        </CharString>
        <CharString name="cid01536" fdSelectIndex="3">
          endchar
        </CharString>
        <CharString name="cid01537" fdSelectIndex="3">
          endchar
        </CharString>
        <CharString name="cid01538" fdSelectIndex="3">
          endchar
        </CharString>
        <CharString name="cid01539" fdSelectIndex="0">
          endchar
        </CharString>
        <CharString name="cid01540" fdSelectIndex="0">
          endchar
        </CharString>
        <CharString name="cid01541" fdSelectIndex="0">
          endchar
        </CharString>
        <CharString name="cid01542" fdSelectIndex="0">
          endchar
        </CharString>
        <CharString name="cid01543" fdSelectIndex="3">
          endchar
        </CharString>
        <CharString name="cid01544" fdSelectIndex="3">
          endchar
        </CharString>
        <CharString name="cid01545" fdSelectIndex="3">
          endchar
        </CharString>
        <CharString name="cid01546" fdSelectIndex="0">
          endchar
        </CharString>
        <CharString name="cid01547" fdSelectIndex="3">
          endchar
        </CharString>
        <CharString name="cid01548" fdSelectIndex="3">
          endchar
        </CharString>
        <CharString name="cid01549" fdSelectIndex="3">
          endchar
        </CharString>
        <CharString name="cid01550" fdSelectIndex="3">
          endchar
        </CharString>
        <CharString name="cid01551" fdSelectIndex="3">
          endchar
        </CharString>
        <CharString name="cid01552" fdSelectIndex="3">
          endchar
        </CharString>
        <CharString name="cid01553" fdSelectIndex="3">
          endchar
        </CharString>
        <CharString name="cid01554" fdSelectIndex="3">
          endchar
        </CharString>
        <CharString name="cid01555" fdSelectIndex="3">
          endchar
        </CharString>
        <CharString name="cid01556" fdSelectIndex="3">
          endchar
        </CharString>
        <CharString name="cid01557" fdSelectIndex="3">
          endchar
        </CharString>
        <CharString name="cid01558" fdSelectIndex="3">
          endchar
        </CharString>
        <CharString name="cid01559" fdSelectIndex="3">
          endchar
        </CharString>
        <CharString name="cid01560" fdSelectIndex="3">
          endchar
        </CharString>
        <CharString name="cid01561" fdSelectIndex="3">
          endchar
        </CharString>
        <CharString name="cid01562" fdSelectIndex="3">
          endchar
        </CharString>
        <CharString name="cid01563" fdSelectIndex="3">
          endchar
        </CharString>
        <CharString name="cid01564" fdSelectIndex="3">
          endchar
        </CharString>
        <CharString name="cid01565" fdSelectIndex="3">
          endchar
        </CharString>
        <CharString name="cid01566" fdSelectIndex="3">
          endchar
        </CharString>
        <CharString name="cid01567" fdSelectIndex="3">
          endchar
        </CharString>
        <CharString name="cid01568" fdSelectIndex="3">
          endchar
        </CharString>
        <CharString name="cid01569" fdSelectIndex="3">
          endchar
        </CharString>
        <CharString name="cid01570" fdSelectIndex="3">
          endchar
        </CharString>
        <CharString name="cid01571" fdSelectIndex="3">
          endchar
        </CharString>
        <CharString name="cid01572" fdSelectIndex="3">
          endchar
        </CharString>
        <CharString name="cid01573" fdSelectIndex="3">
          endchar
        </CharString>
        <CharString name="cid01574" fdSelectIndex="3">
          endchar
        </CharString>
        <CharString name="cid01575" fdSelectIndex="3">
          endchar
        </CharString>
        <CharString name="cid01576" fdSelectIndex="3">
          endchar
        </CharString>
        <CharString name="cid01577" fdSelectIndex="3">
          endchar
        </CharString>
        <CharString name="cid01578" fdSelectIndex="3">
          endchar
        </CharString>
        <CharString name="cid01579" fdSelectIndex="3">
          endchar
        </CharString>
        <CharString name="cid01580" fdSelectIndex="3">
          endchar
        </CharString>
        <CharString name="cid01581" fdSelectIndex="3">
          endchar
        </CharString>
        <CharString name="cid01582" fdSelectIndex="3">
          endchar
        </CharString>
        <CharString name="cid01583" fdSelectIndex="3">
          endchar
        </CharString>
        <CharString name="cid01584" fdSelectIndex="3">
          endchar
        </CharString>
        <CharString name="cid01585" fdSelectIndex="3">
          endchar
        </CharString>
        <CharString name="cid01586" fdSelectIndex="3">
          endchar
        </CharString>
        <CharString name="cid01587" fdSelectIndex="3">
          endchar
        </CharString>
        <CharString name="cid01588" fdSelectIndex="3">
          endchar
        </CharString>
        <CharString name="cid01589" fdSelectIndex="3">
          endchar
        </CharString>
        <CharString name="cid01590" fdSelectIndex="3">
          endchar
        </CharString>
        <CharString name="cid01591" fdSelectIndex="3">
          endchar
        </CharString>
        <CharString name="cid01592" fdSelectIndex="3">
          endchar
        </CharString>
        <CharString name="cid01593" fdSelectIndex="3">
          endchar
        </CharString>
        <CharString name="cid01594" fdSelectIndex="3">
          endchar
        </CharString>
        <CharString name="cid01595" fdSelectIndex="3">
          endchar
        </CharString>
        <CharString name="cid01596" fdSelectIndex="3">
          endchar
        </CharString>
        <CharString name="cid01597" fdSelectIndex="3">
          endchar
        </CharString>
        <CharString name="cid01598" fdSelectIndex="3">
          endchar
        </CharString>
        <CharString name="cid01599" fdSelectIndex="3">
          endchar
        </CharString>
        <CharString name="cid01600" fdSelectIndex="3">
          endchar
        </CharString>
        <CharString name="cid01601" fdSelectIndex="3">
          endchar
        </CharString>
        <CharString name="cid01602" fdSelectIndex="3">
          endchar
        </CharString>
        <CharString name="cid01603" fdSelectIndex="3">
          endchar
        </CharString>
        <CharString name="cid01604" fdSelectIndex="3">
          endchar
        </CharString>
        <CharString name="cid01605" fdSelectIndex="3">
          endchar
        </CharString>
        <CharString name="cid01606" fdSelectIndex="3">
          endchar
        </CharString>
        <CharString name="cid01607" fdSelectIndex="3">
          endchar
        </CharString>
        <CharString name="cid01608" fdSelectIndex="3">
          endchar
        </CharString>
        <CharString name="cid01609" fdSelectIndex="3">
          endchar
        </CharString>
        <CharString name="cid01610" fdSelectIndex="3">
          endchar
        </CharString>
        <CharString name="cid01611" fdSelectIndex="3">
          endchar
        </CharString>
        <CharString name="cid01612" fdSelectIndex="3">
          endchar
        </CharString>
        <CharString name="cid01613" fdSelectIndex="3">
          endchar
        </CharString>
        <CharString name="cid01614" fdSelectIndex="3">
          endchar
        </CharString>
        <CharString name="cid01615" fdSelectIndex="3">
          endchar
        </CharString>
        <CharString name="cid01616" fdSelectIndex="3">
          endchar
        </CharString>
        <CharString name="cid01617" fdSelectIndex="3">
          endchar
        </CharString>
        <CharString name="cid01618" fdSelectIndex="3">
          endchar
        </CharString>
        <CharString name="cid01619" fdSelectIndex="3">
          endchar
        </CharString>
        <CharString name="cid01620" fdSelectIndex="3">
          endchar
        </CharString>
        <CharString name="cid01621" fdSelectIndex="3">
          endchar
        </CharString>
        <CharString name="cid01622" fdSelectIndex="3">
          endchar
        </CharString>
        <CharString name="cid01623" fdSelectIndex="3">
          endchar
        </CharString>
        <CharString name="cid01624" fdSelectIndex="3">
          endchar
        </CharString>
        <CharString name="cid01625" fdSelectIndex="3">
          endchar
        </CharString>
        <CharString name="cid01626" fdSelectIndex="3">
          endchar
        </CharString>
        <CharString name="cid01627" fdSelectIndex="3">
          endchar
        </CharString>
        <CharString name="cid01628" fdSelectIndex="3">
          endchar
        </CharString>
        <CharString name="cid01629" fdSelectIndex="3">
          endchar
        </CharString>
        <CharString name="cid01630" fdSelectIndex="3">
          endchar
        </CharString>
        <CharString name="cid01631" fdSelectIndex="3">
          endchar
        </CharString>
        <CharString name="cid01632" fdSelectIndex="3">
          endchar
        </CharString>
        <CharString name="cid01633" fdSelectIndex="3">
          endchar
        </CharString>
        <CharString name="cid01634" fdSelectIndex="3">
          endchar
        </CharString>
        <CharString name="cid01635" fdSelectIndex="3">
          endchar
        </CharString>
        <CharString name="cid01636" fdSelectIndex="3">
          endchar
        </CharString>
        <CharString name="cid01637" fdSelectIndex="0">
          endchar
        </CharString>
        <CharString name="cid01638" fdSelectIndex="3">
          endchar
        </CharString>
        <CharString name="cid01639" fdSelectIndex="3">
          endchar
        </CharString>
        <CharString name="cid01640" fdSelectIndex="3">
          endchar
        </CharString>
        <CharString name="cid01641" fdSelectIndex="3">
          endchar
        </CharString>
        <CharString name="cid01855" fdSelectIndex="3">
          endchar
        </CharString>
        <CharString name="cid01856" fdSelectIndex="3">
          endchar
        </CharString>
        <CharString name="cid01857" fdSelectIndex="3">
          endchar
        </CharString>
        <CharString name="cid01858" fdSelectIndex="3">
          endchar
        </CharString>
        <CharString name="cid01859" fdSelectIndex="3">
          endchar
        </CharString>
        <CharString name="cid01860" fdSelectIndex="3">
          endchar
        </CharString>
        <CharString name="cid01861" fdSelectIndex="3">
          endchar
        </CharString>
        <CharString name="cid01862" fdSelectIndex="3">
          endchar
        </CharString>
        <CharString name="cid01863" fdSelectIndex="3">
          endchar
        </CharString>
        <CharString name="cid01864" fdSelectIndex="3">
          endchar
        </CharString>
        <CharString name="cid01865" fdSelectIndex="3">
          endchar
        </CharString>
        <CharString name="cid01866" fdSelectIndex="3">
          endchar
        </CharString>
        <CharString name="cid01867" fdSelectIndex="3">
          endchar
        </CharString>
        <CharString name="cid01868" fdSelectIndex="3">
          endchar
        </CharString>
        <CharString name="cid01869" fdSelectIndex="3">
          endchar
        </CharString>
        <CharString name="cid01870" fdSelectIndex="3">
          endchar
        </CharString>
        <CharString name="cid01971" fdSelectIndex="0">
          endchar
        </CharString>
        <CharString name="cid01972" fdSelectIndex="0">
          endchar
        </CharString>
        <CharString name="cid01973" fdSelectIndex="0">
          endchar
        </CharString>
        <CharString name="cid01974" fdSelectIndex="0">
          endchar
        </CharString>
        <CharString name="cid01975" fdSelectIndex="0">
          endchar
        </CharString>
        <CharString name="cid01976" fdSelectIndex="0">
          endchar
        </CharString>
        <CharString name="cid01977" fdSelectIndex="0">
          endchar
        </CharString>
        <CharString name="cid01978" fdSelectIndex="0">
          endchar
        </CharString>
        <CharString name="cid01979" fdSelectIndex="0">
          endchar
        </CharString>
        <CharString name="cid01980" fdSelectIndex="0">
          endchar
        </CharString>
        <CharString name="cid01981" fdSelectIndex="0">
          endchar
        </CharString>
        <CharString name="cid01982" fdSelectIndex="0">
          endchar
        </CharString>
        <CharString name="cid01983" fdSelectIndex="0">
          endchar
        </CharString>
        <CharString name="cid01984" fdSelectIndex="0">
          endchar
        </CharString>
        <CharString name="cid01985" fdSelectIndex="0">
          endchar
        </CharString>
        <CharString name="cid02096" fdSelectIndex="0">
          endchar
        </CharString>
        <CharString name="cid02097" fdSelectIndex="0">
          endchar
        </CharString>
        <CharString name="cid02098" fdSelectIndex="0">
          endchar
        </CharString>
        <CharString name="cid02099" fdSelectIndex="0">
          endchar
        </CharString>
        <CharString name="cid02100" fdSelectIndex="0">
          endchar
        </CharString>
        <CharString name="cid02101" fdSelectIndex="0">
          endchar
        </CharString>
        <CharString name="cid02102" fdSelectIndex="0">
          endchar
        </CharString>
        <CharString name="cid02103" fdSelectIndex="0">
          endchar
        </CharString>
        <CharString name="cid02104" fdSelectIndex="0">
          endchar
        </CharString>
        <CharString name="cid02105" fdSelectIndex="0">
          endchar
        </CharString>
        <CharString name="cid02106" fdSelectIndex="0">
          endchar
        </CharString>
        <CharString name="cid02107" fdSelectIndex="0">
          endchar
        </CharString>
        <CharString name="cid02108" fdSelectIndex="0">
          endchar
        </CharString>
        <CharString name="cid02109" fdSelectIndex="0">
          endchar
        </CharString>
        <CharString name="cid02110" fdSelectIndex="0">
          endchar
        </CharString>
        <CharString name="cid10627" fdSelectIndex="2">
          endchar
        </CharString>
        <CharString name="cid10628" fdSelectIndex="2">
          endchar
        </CharString>
        <CharString name="cid10629" fdSelectIndex="2">
          endchar
        </CharString>
        <CharString name="cid10630" fdSelectIndex="2">
          endchar
        </CharString>
        <CharString name="cid10635" fdSelectIndex="2">
          endchar
        </CharString>
        <CharString name="cid10636" fdSelectIndex="2">
          endchar
        </CharString>
        <CharString name="cid10637" fdSelectIndex="2">
          endchar
        </CharString>
        <CharString name="cid10640" fdSelectIndex="2">
          endchar
        </CharString>
        <CharString name="cid10643" fdSelectIndex="2">
          endchar
        </CharString>
        <CharString name="cid10644" fdSelectIndex="2">
          endchar
        </CharString>
        <CharString name="cid10652" fdSelectIndex="2">
          endchar
        </CharString>
        <CharString name="cid10653" fdSelectIndex="2">
          endchar
        </CharString>
        <CharString name="cid10656" fdSelectIndex="2">
          endchar
        </CharString>
        <CharString name="cid10657" fdSelectIndex="2">
          endchar
        </CharString>
        <CharString name="cid10660" fdSelectIndex="2">
          endchar
        </CharString>
        <CharString name="cid10661" fdSelectIndex="2">
          endchar
        </CharString>
        <CharString name="cid10666" fdSelectIndex="2">
          endchar
        </CharString>
        <CharString name="cid10667" fdSelectIndex="2">
          endchar
        </CharString>
        <CharString name="cid10668" fdSelectIndex="2">
          endchar
        </CharString>
        <CharString name="cid10669" fdSelectIndex="2">
          endchar
        </CharString>
        <CharString name="cid10677" fdSelectIndex="2">
          endchar
        </CharString>
        <CharString name="cid10678" fdSelectIndex="2">
          endchar
        </CharString>
        <CharString name="cid10680" fdSelectIndex="2">
          endchar
        </CharString>
        <CharString name="cid10682" fdSelectIndex="2">
          endchar
        </CharString>
        <CharString name="cid10683" fdSelectIndex="2">
          endchar
        </CharString>
        <CharString name="cid10684" fdSelectIndex="2">
          endchar
        </CharString>
        <CharString name="cid10685" fdSelectIndex="2">
          endchar
        </CharString>
        <CharString name="cid10686" fdSelectIndex="2">
          endchar
        </CharString>
        <CharString name="cid10687" fdSelectIndex="2">
          endchar
        </CharString>
        <CharString name="cid10688" fdSelectIndex="2">
          endchar
        </CharString>
        <CharString name="cid10689" fdSelectIndex="2">
          endchar
        </CharString>
        <CharString name="cid10690" fdSelectIndex="2">
          endchar
        </CharString>
        <CharString name="cid10694" fdSelectIndex="2">
          endchar
        </CharString>
        <CharString name="cid10698" fdSelectIndex="2">
          endchar
        </CharString>
        <CharString name="cid10699" fdSelectIndex="2">
          endchar
        </CharString>
        <CharString name="cid10700" fdSelectIndex="2">
          endchar
        </CharString>
        <CharString name="cid10701" fdSelectIndex="2">
          endchar
        </CharString>
        <CharString name="cid10702" fdSelectIndex="2">
          endchar
        </CharString>
        <CharString name="cid10703" fdSelectIndex="2">
          endchar
        </CharString>
        <CharString name="cid10704" fdSelectIndex="2">
          endchar
        </CharString>
        <CharString name="cid10705" fdSelectIndex="2">
          endchar
        </CharString>
        <CharString name="cid10719" fdSelectIndex="2">
          endchar
        </CharString>
        <CharString name="cid10723" fdSelectIndex="2">
          endchar
        </CharString>
        <CharString name="cid10724" fdSelectIndex="2">
          endchar
        </CharString>
        <CharString name="cid10739" fdSelectIndex="2">
          endchar
        </CharString>
        <CharString name="cid10740" fdSelectIndex="2">
          endchar
        </CharString>
        <CharString name="cid10741" fdSelectIndex="2">
          endchar
        </CharString>
        <CharString name="cid10746" fdSelectIndex="2">
          endchar
        </CharString>
        <CharString name="cid10747" fdSelectIndex="2">
          endchar
        </CharString>
        <CharString name="cid10748" fdSelectIndex="2">
          endchar
        </CharString>
        <CharString name="cid10749" fdSelectIndex="2">
          endchar
        </CharString>
        <CharString name="cid10750" fdSelectIndex="2">
          endchar
        </CharString>
        <CharString name="cid10751" fdSelectIndex="2">
          endchar
        </CharString>
        <CharString name="cid10752" fdSelectIndex="2">
          endchar
        </CharString>
        <CharString name="cid10761" fdSelectIndex="2">
          endchar
        </CharString>
        <CharString name="cid10762" fdSelectIndex="2">
          endchar
        </CharString>
        <CharString name="cid10763" fdSelectIndex="2">
          endchar
        </CharString>
        <CharString name="cid10772" fdSelectIndex="2">
          endchar
        </CharString>
        <CharString name="cid10773" fdSelectIndex="2">
          endchar
        </CharString>
        <CharString name="cid10774" fdSelectIndex="2">
          endchar
        </CharString>
        <CharString name="cid10782" fdSelectIndex="2">
          endchar
        </CharString>
        <CharString name="cid10785" fdSelectIndex="2">
          endchar
        </CharString>
        <CharString name="cid10786" fdSelectIndex="2">
          endchar
        </CharString>
        <CharString name="cid10803" fdSelectIndex="2">
          endchar
        </CharString>
        <CharString name="cid10804" fdSelectIndex="2">
          endchar
        </CharString>
        <CharString name="cid10827" fdSelectIndex="2">
          endchar
        </CharString>
        <CharString name="cid10828" fdSelectIndex="2">
          endchar
        </CharString>
        <CharString name="cid10830" fdSelectIndex="2">
          endchar
        </CharString>
        <CharString name="cid10831" fdSelectIndex="2">
          endchar
        </CharString>
        <CharString name="cid10832" fdSelectIndex="2">
          endchar
        </CharString>
        <CharString name="cid10833" fdSelectIndex="2">
          endchar
        </CharString>
        <CharString name="cid10845" fdSelectIndex="2">
          endchar
        </CharString>
        <CharString name="cid10848" fdSelectIndex="2">
          endchar
        </CharString>
        <CharString name="cid10849" fdSelectIndex="2">
          endchar
        </CharString>
        <CharString name="cid10850" fdSelectIndex="2">
          endchar
        </CharString>
        <CharString name="cid10859" fdSelectIndex="2">
          endchar
        </CharString>
        <CharString name="cid10860" fdSelectIndex="2">
          endchar
        </CharString>
        <CharString name="cid10872" fdSelectIndex="2">
          endchar
        </CharString>
        <CharString name="cid10873" fdSelectIndex="2">
          endchar
        </CharString>
        <CharString name="cid10880" fdSelectIndex="2">
          endchar
        </CharString>
        <CharString name="cid10881" fdSelectIndex="2">
          endchar
        </CharString>
        <CharString name="cid10882" fdSelectIndex="2">
          endchar
        </CharString>
        <CharString name="cid10896" fdSelectIndex="2">
          endchar
        </CharString>
        <CharString name="cid10897" fdSelectIndex="2">
          endchar
        </CharString>
        <CharString name="cid10898" fdSelectIndex="2">
          endchar
        </CharString>
        <CharString name="cid10899" fdSelectIndex="2">
          endchar
        </CharString>
        <CharString name="cid10900" fdSelectIndex="2">
          endchar
        </CharString>
        <CharString name="cid10933" fdSelectIndex="2">
          endchar
        </CharString>
        <CharString name="cid10934" fdSelectIndex="2">
          endchar
        </CharString>
        <CharString name="cid10935" fdSelectIndex="2">
          endchar
        </CharString>
        <CharString name="cid10936" fdSelectIndex="2">
          endchar
        </CharString>
        <CharString name="cid10937" fdSelectIndex="2">
          endchar
        </CharString>
        <CharString name="cid10945" fdSelectIndex="2">
          endchar
        </CharString>
        <CharString name="cid10946" fdSelectIndex="2">
          endchar
        </CharString>
        <CharString name="cid10947" fdSelectIndex="2">
          endchar
        </CharString>
        <CharString name="cid10948" fdSelectIndex="2">
          endchar
        </CharString>
        <CharString name="cid10949" fdSelectIndex="2">
          endchar
        </CharString>
        <CharString name="cid10950" fdSelectIndex="2">
          endchar
        </CharString>
        <CharString name="cid10951" fdSelectIndex="2">
          endchar
        </CharString>
        <CharString name="cid10952" fdSelectIndex="2">
          endchar
        </CharString>
        <CharString name="cid10954" fdSelectIndex="2">
          endchar
        </CharString>
        <CharString name="cid10968" fdSelectIndex="2">
          endchar
        </CharString>
        <CharString name="cid10969" fdSelectIndex="2">
          endchar
        </CharString>
        <CharString name="cid10976" fdSelectIndex="2">
          endchar
        </CharString>
        <CharString name="cid10977" fdSelectIndex="2">
          endchar
        </CharString>
        <CharString name="cid10978" fdSelectIndex="2">
          endchar
        </CharString>
        <CharString name="cid10982" fdSelectIndex="2">
          endchar
        </CharString>
        <CharString name="cid10990" fdSelectIndex="2">
          endchar
        </CharString>
        <CharString name="cid10991" fdSelectIndex="2">
          endchar
        </CharString>
        <CharString name="cid10996" fdSelectIndex="2">
          endchar
        </CharString>
        <CharString name="cid10999" fdSelectIndex="2">
          endchar
        </CharString>
        <CharString name="cid11000" fdSelectIndex="2">
          endchar
        </CharString>
        <CharString name="cid11001" fdSelectIndex="2">
          endchar
        </CharString>
        <CharString name="cid11004" fdSelectIndex="2">
          endchar
        </CharString>
        <CharString name="cid11009" fdSelectIndex="2">
          endchar
        </CharString>
        <CharString name="cid11010" fdSelectIndex="2">
          endchar
        </CharString>
        <CharString name="cid11011" fdSelectIndex="2">
          endchar
        </CharString>
        <CharString name="cid11012" fdSelectIndex="2">
          endchar
        </CharString>
        <CharString name="cid11020" fdSelectIndex="2">
          endchar
        </CharString>
        <CharString name="cid11027" fdSelectIndex="2">
          endchar
        </CharString>
        <CharString name="cid11028" fdSelectIndex="2">
          endchar
        </CharString>
        <CharString name="cid11038" fdSelectIndex="2">
          endchar
        </CharString>
        <CharString name="cid11039" fdSelectIndex="2">
          endchar
        </CharString>
        <CharString name="cid11041" fdSelectIndex="2">
          endchar
        </CharString>
        <CharString name="cid11044" fdSelectIndex="2">
          endchar
        </CharString>
        <CharString name="cid11045" fdSelectIndex="2">
          endchar
        </CharString>
        <CharString name="cid11053" fdSelectIndex="2">
          endchar
        </CharString>
        <CharString name="cid11054" fdSelectIndex="2">
          endchar
        </CharString>
        <CharString name="cid11055" fdSelectIndex="2">
          endchar
        </CharString>
        <CharString name="cid11056" fdSelectIndex="2">
          endchar
        </CharString>
        <CharString name="cid11057" fdSelectIndex="2">
          endchar
        </CharString>
        <CharString name="cid11071" fdSelectIndex="2">
          endchar
        </CharString>
        <CharString name="cid11078" fdSelectIndex="2">
          endchar
        </CharString>
        <CharString name="cid11080" fdSelectIndex="2">
          endchar
        </CharString>
        <CharString name="cid11081" fdSelectIndex="2">
          endchar
        </CharString>
        <CharString name="cid11089" fdSelectIndex="2">
          endchar
        </CharString>
        <CharString name="cid11092" fdSelectIndex="2">
          endchar
        </CharString>
        <CharString name="cid11093" fdSelectIndex="2">
          endchar
        </CharString>
        <CharString name="cid11094" fdSelectIndex="2">
          endchar
        </CharString>
        <CharString name="cid11097" fdSelectIndex="2">
          endchar
        </CharString>
        <CharString name="cid11098" fdSelectIndex="2">
          endchar
        </CharString>
        <CharString name="cid11106" fdSelectIndex="2">
          endchar
        </CharString>
        <CharString name="cid11107" fdSelectIndex="2">
          endchar
        </CharString>
        <CharString name="cid11122" fdSelectIndex="2">
          endchar
        </CharString>
        <CharString name="cid11123" fdSelectIndex="2">
          endchar
        </CharString>
        <CharString name="cid11126" fdSelectIndex="2">
          endchar
        </CharString>
        <CharString name="cid11129" fdSelectIndex="2">
          endchar
        </CharString>
        <CharString name="cid11130" fdSelectIndex="2">
          endchar
        </CharString>
        <CharString name="cid11133" fdSelectIndex="2">
          endchar
        </CharString>
        <CharString name="cid11136" fdSelectIndex="2">
          endchar
        </CharString>
        <CharString name="cid11137" fdSelectIndex="2">
          endchar
        </CharString>
        <CharString name="cid11138" fdSelectIndex="2">
          endchar
        </CharString>
        <CharString name="cid11145" fdSelectIndex="2">
          endchar
        </CharString>
        <CharString name="cid11148" fdSelectIndex="2">
          endchar
        </CharString>
        <CharString name="cid11162" fdSelectIndex="2">
          endchar
        </CharString>
        <CharString name="cid11163" fdSelectIndex="2">
          endchar
        </CharString>
        <CharString name="cid11180" fdSelectIndex="2">
          endchar
        </CharString>
        <CharString name="cid11181" fdSelectIndex="2">
          endchar
        </CharString>
        <CharString name="cid11197" fdSelectIndex="2">
          endchar
        </CharString>
        <CharString name="cid11198" fdSelectIndex="2">
          endchar
        </CharString>
        <CharString name="cid11204" fdSelectIndex="2">
          endchar
        </CharString>
        <CharString name="cid11205" fdSelectIndex="2">
          endchar
        </CharString>
        <CharString name="cid11206" fdSelectIndex="2">
          endchar
        </CharString>
        <CharString name="cid11207" fdSelectIndex="2">
          endchar
        </CharString>
        <CharString name="cid11208" fdSelectIndex="2">
          endchar
        </CharString>
        <CharString name="cid11211" fdSelectIndex="2">
          endchar
        </CharString>
        <CharString name="cid11212" fdSelectIndex="2">
          endchar
        </CharString>
        <CharString name="cid11213" fdSelectIndex="2">
          endchar
        </CharString>
        <CharString name="cid11214" fdSelectIndex="2">
          endchar
        </CharString>
        <CharString name="cid11215" fdSelectIndex="2">
          endchar
        </CharString>
        <CharString name="cid11216" fdSelectIndex="2">
          endchar
        </CharString>
        <CharString name="cid11217" fdSelectIndex="2">
          endchar
        </CharString>
        <CharString name="cid11218" fdSelectIndex="2">
          endchar
        </CharString>
        <CharString name="cid11219" fdSelectIndex="2">
          endchar
        </CharString>
        <CharString name="cid11220" fdSelectIndex="2">
          endchar
        </CharString>
        <CharString name="cid11221" fdSelectIndex="2">
          endchar
        </CharString>
        <CharString name="cid11224" fdSelectIndex="2">
          endchar
        </CharString>
        <CharString name="cid11225" fdSelectIndex="2">
          endchar
        </CharString>
        <CharString name="cid11226" fdSelectIndex="2">
          endchar
        </CharString>
        <CharString name="cid11227" fdSelectIndex="2">
          endchar
        </CharString>
        <CharString name="cid11228" fdSelectIndex="2">
          endchar
        </CharString>
        <CharString name="cid11229" fdSelectIndex="2">
          endchar
        </CharString>
        <CharString name="cid11230" fdSelectIndex="2">
          endchar
        </CharString>
        <CharString name="cid11231" fdSelectIndex="2">
          endchar
        </CharString>
        <CharString name="cid11234" fdSelectIndex="2">
          endchar
        </CharString>
        <CharString name="cid11236" fdSelectIndex="2">
          endchar
        </CharString>
        <CharString name="cid11237" fdSelectIndex="2">
          endchar
        </CharString>
        <CharString name="cid11240" fdSelectIndex="2">
          endchar
        </CharString>
        <CharString name="cid11250" fdSelectIndex="2">
          endchar
        </CharString>
        <CharString name="cid11251" fdSelectIndex="2">
          endchar
        </CharString>
        <CharString name="cid11253" fdSelectIndex="2">
          endchar
        </CharString>
        <CharString name="cid11254" fdSelectIndex="2">
          endchar
        </CharString>
        <CharString name="cid11269" fdSelectIndex="2">
          endchar
        </CharString>
        <CharString name="cid11270" fdSelectIndex="2">
          endchar
        </CharString>
        <CharString name="cid11275" fdSelectIndex="2">
          endchar
        </CharString>
        <CharString name="cid11276" fdSelectIndex="2">
          endchar
        </CharString>
        <CharString name="cid11277" fdSelectIndex="2">
          endchar
        </CharString>
        <CharString name="cid11278" fdSelectIndex="2">
          endchar
        </CharString>
        <CharString name="cid11279" fdSelectIndex="2">
          endchar
        </CharString>
        <CharString name="cid11280" fdSelectIndex="2">
          endchar
        </CharString>
        <CharString name="cid11281" fdSelectIndex="2">
          endchar
        </CharString>
        <CharString name="cid11282" fdSelectIndex="2">
          endchar
        </CharString>
        <CharString name="cid11283" fdSelectIndex="2">
          endchar
        </CharString>
        <CharString name="cid11284" fdSelectIndex="2">
          endchar
        </CharString>
        <CharString name="cid11285" fdSelectIndex="2">
          endchar
        </CharString>
        <CharString name="cid11286" fdSelectIndex="2">
          endchar
        </CharString>
        <CharString name="cid11287" fdSelectIndex="2">
          endchar
        </CharString>
        <CharString name="cid11288" fdSelectIndex="2">
          endchar
        </CharString>
        <CharString name="cid11289" fdSelectIndex="2">
          endchar
        </CharString>
        <CharString name="cid11295" fdSelectIndex="2">
          endchar
        </CharString>
        <CharString name="cid11300" fdSelectIndex="2">
          endchar
        </CharString>
        <CharString name="cid11301" fdSelectIndex="2">
          endchar
        </CharString>
        <CharString name="cid11302" fdSelectIndex="2">
          endchar
        </CharString>
        <CharString name="cid11303" fdSelectIndex="2">
          endchar
        </CharString>
        <CharString name="cid11304" fdSelectIndex="2">
          endchar
        </CharString>
        <CharString name="cid11305" fdSelectIndex="2">
          endchar
        </CharString>
        <CharString name="cid11311" fdSelectIndex="2">
          endchar
        </CharString>
        <CharString name="cid11316" fdSelectIndex="2">
          endchar
        </CharString>
        <CharString name="cid11317" fdSelectIndex="2">
          endchar
        </CharString>
        <CharString name="cid11318" fdSelectIndex="2">
          endchar
        </CharString>
        <CharString name="cid11320" fdSelectIndex="2">
          endchar
        </CharString>
        <CharString name="cid11323" fdSelectIndex="2">
          endchar
        </CharString>
        <CharString name="cid11324" fdSelectIndex="2">
          endchar
        </CharString>
        <CharString name="cid11329" fdSelectIndex="2">
          endchar
        </CharString>
        <CharString name="cid11332" fdSelectIndex="2">
          endchar
        </CharString>
        <CharString name="cid11335" fdSelectIndex="2">
          endchar
        </CharString>
        <CharString name="cid11336" fdSelectIndex="2">
          endchar
        </CharString>
        <CharString name="cid11337" fdSelectIndex="2">
          endchar
        </CharString>
        <CharString name="cid11339" fdSelectIndex="2">
          endchar
        </CharString>
        <CharString name="cid11340" fdSelectIndex="2">
          endchar
        </CharString>
        <CharString name="cid11341" fdSelectIndex="2">
          endchar
        </CharString>
        <CharString name="cid11342" fdSelectIndex="2">
          endchar
        </CharString>
        <CharString name="cid11343" fdSelectIndex="2">
          endchar
        </CharString>
        <CharString name="cid11344" fdSelectIndex="2">
          endchar
        </CharString>
        <CharString name="cid11347" fdSelectIndex="2">
          endchar
        </CharString>
        <CharString name="cid11348" fdSelectIndex="2">
          endchar
        </CharString>
        <CharString name="cid11350" fdSelectIndex="2">
          endchar
        </CharString>
        <CharString name="cid11351" fdSelectIndex="2">
          endchar
        </CharString>
        <CharString name="cid11359" fdSelectIndex="2">
          endchar
        </CharString>
        <CharString name="cid11367" fdSelectIndex="2">
          endchar
        </CharString>
        <CharString name="cid11368" fdSelectIndex="2">
          endchar
        </CharString>
        <CharString name="cid11369" fdSelectIndex="2">
          endchar
        </CharString>
        <CharString name="cid11370" fdSelectIndex="2">
          endchar
        </CharString>
        <CharString name="cid11371" fdSelectIndex="2">
          endchar
        </CharString>
        <CharString name="cid11373" fdSelectIndex="2">
          endchar
        </CharString>
        <CharString name="cid11376" fdSelectIndex="2">
          endchar
        </CharString>
        <CharString name="cid11377" fdSelectIndex="2">
          endchar
        </CharString>
        <CharString name="cid11378" fdSelectIndex="2">
          endchar
        </CharString>
        <CharString name="cid11379" fdSelectIndex="2">
          endchar
        </CharString>
        <CharString name="cid11380" fdSelectIndex="2">
          endchar
        </CharString>
        <CharString name="cid11381" fdSelectIndex="2">
          endchar
        </CharString>
        <CharString name="cid11389" fdSelectIndex="2">
          endchar
        </CharString>
        <CharString name="cid11390" fdSelectIndex="2">
          endchar
        </CharString>
        <CharString name="cid11391" fdSelectIndex="2">
          endchar
        </CharString>
        <CharString name="cid11392" fdSelectIndex="2">
          endchar
        </CharString>
        <CharString name="cid11393" fdSelectIndex="2">
          endchar
        </CharString>
        <CharString name="cid11394" fdSelectIndex="2">
          endchar
        </CharString>
        <CharString name="cid11395" fdSelectIndex="2">
          endchar
        </CharString>
        <CharString name="cid11396" fdSelectIndex="2">
          endchar
        </CharString>
        <CharString name="cid11397" fdSelectIndex="2">
          endchar
        </CharString>
        <CharString name="cid11398" fdSelectIndex="2">
          endchar
        </CharString>
        <CharString name="cid11399" fdSelectIndex="2">
          endchar
        </CharString>
        <CharString name="cid11400" fdSelectIndex="2">
          endchar
        </CharString>
        <CharString name="cid11423" fdSelectIndex="2">
          endchar
        </CharString>
        <CharString name="cid11424" fdSelectIndex="2">
          endchar
        </CharString>
        <CharString name="cid11425" fdSelectIndex="2">
          endchar
        </CharString>
        <CharString name="cid11426" fdSelectIndex="2">
          endchar
        </CharString>
        <CharString name="cid11427" fdSelectIndex="2">
          endchar
        </CharString>
        <CharString name="cid11428" fdSelectIndex="2">
          endchar
        </CharString>
        <CharString name="cid11429" fdSelectIndex="2">
          endchar
        </CharString>
        <CharString name="cid11434" fdSelectIndex="2">
          endchar
        </CharString>
        <CharString name="cid11435" fdSelectIndex="2">
          endchar
        </CharString>
        <CharString name="cid11439" fdSelectIndex="2">
          endchar
        </CharString>
        <CharString name="cid11440" fdSelectIndex="2">
          endchar
        </CharString>
        <CharString name="cid11441" fdSelectIndex="2">
          endchar
        </CharString>
        <CharString name="cid11442" fdSelectIndex="2">
          endchar
        </CharString>
        <CharString name="cid11443" fdSelectIndex="2">
          endchar
        </CharString>
        <CharString name="cid11444" fdSelectIndex="2">
          endchar
        </CharString>
        <CharString name="cid11445" fdSelectIndex="2">
          endchar
        </CharString>
        <CharString name="cid11463" fdSelectIndex="2">
          endchar
        </CharString>
        <CharString name="cid11464" fdSelectIndex="2">
          endchar
        </CharString>
        <CharString name="cid11470" fdSelectIndex="2">
          endchar
        </CharString>
        <CharString name="cid11471" fdSelectIndex="2">
          endchar
        </CharString>
        <CharString name="cid11472" fdSelectIndex="2">
          endchar
        </CharString>
        <CharString name="cid11473" fdSelectIndex="2">
          endchar
        </CharString>
        <CharString name="cid11474" fdSelectIndex="2">
          endchar
        </CharString>
        <CharString name="cid11475" fdSelectIndex="2">
          endchar
        </CharString>
        <CharString name="cid11476" fdSelectIndex="2">
          endchar
        </CharString>
        <CharString name="cid11477" fdSelectIndex="2">
          endchar
        </CharString>
        <CharString name="cid11478" fdSelectIndex="2">
          endchar
        </CharString>
        <CharString name="cid11484" fdSelectIndex="2">
          endchar
        </CharString>
        <CharString name="cid11485" fdSelectIndex="2">
          endchar
        </CharString>
        <CharString name="cid11490" fdSelectIndex="2">
          endchar
        </CharString>
        <CharString name="cid11491" fdSelectIndex="2">
          endchar
        </CharString>
        <CharString name="cid11495" fdSelectIndex="2">
          endchar
        </CharString>
        <CharString name="cid11498" fdSelectIndex="2">
          endchar
        </CharString>
        <CharString name="cid11499" fdSelectIndex="2">
          endchar
        </CharString>
        <CharString name="cid11502" fdSelectIndex="2">
          endchar
        </CharString>
        <CharString name="cid11503" fdSelectIndex="2">
          endchar
        </CharString>
        <CharString name="cid11509" fdSelectIndex="2">
          endchar
        </CharString>
        <CharString name="cid11510" fdSelectIndex="2">
          endchar
        </CharString>
        <CharString name="cid11511" fdSelectIndex="2">
          endchar
        </CharString>
        <CharString name="cid11512" fdSelectIndex="2">
          endchar
        </CharString>
        <CharString name="cid11515" fdSelectIndex="2">
          endchar
        </CharString>
        <CharString name="cid11516" fdSelectIndex="2">
          endchar
        </CharString>
        <CharString name="cid11517" fdSelectIndex="2">
          endchar
        </CharString>
        <CharString name="cid11518" fdSelectIndex="2">
          endchar
        </CharString>
        <CharString name="cid11519" fdSelectIndex="2">
          endchar
        </CharString>
        <CharString name="cid11520" fdSelectIndex="2">
          endchar
        </CharString>
        <CharString name="cid11524" fdSelectIndex="2">
          endchar
        </CharString>
        <CharString name="cid11525" fdSelectIndex="2">
          endchar
        </CharString>
        <CharString name="cid11529" fdSelectIndex="2">
          endchar
        </CharString>
        <CharString name="cid11532" fdSelectIndex="2">
          endchar
        </CharString>
        <CharString name="cid11533" fdSelectIndex="2">
          endchar
        </CharString>
        <CharString name="cid11534" fdSelectIndex="2">
          endchar
        </CharString>
        <CharString name="cid11535" fdSelectIndex="2">
          endchar
        </CharString>
        <CharString name="cid11536" fdSelectIndex="2">
          endchar
        </CharString>
        <CharString name="cid11539" fdSelectIndex="2">
          endchar
        </CharString>
        <CharString name="cid11540" fdSelectIndex="2">
          endchar
        </CharString>
        <CharString name="cid11541" fdSelectIndex="2">
          endchar
        </CharString>
        <CharString name="cid11542" fdSelectIndex="2">
          endchar
        </CharString>
        <CharString name="cid11543" fdSelectIndex="2">
          endchar
        </CharString>
        <CharString name="cid11544" fdSelectIndex="2">
          endchar
        </CharString>
        <CharString name="cid11546" fdSelectIndex="2">
          endchar
        </CharString>
        <CharString name="cid11550" fdSelectIndex="2">
          endchar
        </CharString>
        <CharString name="cid11553" fdSelectIndex="2">
          endchar
        </CharString>
        <CharString name="cid11560" fdSelectIndex="2">
          endchar
        </CharString>
        <CharString name="cid11561" fdSelectIndex="2">
          endchar
        </CharString>
        <CharString name="cid11562" fdSelectIndex="2">
          endchar
        </CharString>
        <CharString name="cid11569" fdSelectIndex="2">
          endchar
        </CharString>
        <CharString name="cid11570" fdSelectIndex="2">
          endchar
        </CharString>
        <CharString name="cid11579" fdSelectIndex="2">
          endchar
        </CharString>
        <CharString name="cid11580" fdSelectIndex="2">
          endchar
        </CharString>
        <CharString name="cid11581" fdSelectIndex="2">
          endchar
        </CharString>
        <CharString name="cid11587" fdSelectIndex="2">
          endchar
        </CharString>
        <CharString name="cid11588" fdSelectIndex="2">
          endchar
        </CharString>
        <CharString name="cid11589" fdSelectIndex="2">
          endchar
        </CharString>
        <CharString name="cid11593" fdSelectIndex="2">
          endchar
        </CharString>
        <CharString name="cid11595" fdSelectIndex="2">
          endchar
        </CharString>
        <CharString name="cid11596" fdSelectIndex="2">
          endchar
        </CharString>
        <CharString name="cid11606" fdSelectIndex="2">
          endchar
        </CharString>
        <CharString name="cid11607" fdSelectIndex="2">
          endchar
        </CharString>
        <CharString name="cid11608" fdSelectIndex="2">
          endchar
        </CharString>
        <CharString name="cid11609" fdSelectIndex="2">
          endchar
        </CharString>
        <CharString name="cid11610" fdSelectIndex="2">
          endchar
        </CharString>
        <CharString name="cid11611" fdSelectIndex="2">
          endchar
        </CharString>
        <CharString name="cid11612" fdSelectIndex="2">
          endchar
        </CharString>
        <CharString name="cid11613" fdSelectIndex="2">
          endchar
        </CharString>
        <CharString name="cid11614" fdSelectIndex="2">
          endchar
        </CharString>
        <CharString name="cid11615" fdSelectIndex="2">
          endchar
        </CharString>
        <CharString name="cid11616" fdSelectIndex="2">
          endchar
        </CharString>
        <CharString name="cid11628" fdSelectIndex="2">
          endchar
        </CharString>
        <CharString name="cid11629" fdSelectIndex="2">
          endchar
        </CharString>
        <CharString name="cid11630" fdSelectIndex="2">
          endchar
        </CharString>
        <CharString name="cid11633" fdSelectIndex="2">
          endchar
        </CharString>
        <CharString name="cid11636" fdSelectIndex="2">
          endchar
        </CharString>
        <CharString name="cid11637" fdSelectIndex="2">
          endchar
        </CharString>
        <CharString name="cid11638" fdSelectIndex="2">
          endchar
        </CharString>
        <CharString name="cid11639" fdSelectIndex="2">
          endchar
        </CharString>
        <CharString name="cid11640" fdSelectIndex="2">
          endchar
        </CharString>
        <CharString name="cid11641" fdSelectIndex="2">
          endchar
        </CharString>
        <CharString name="cid11653" fdSelectIndex="2">
          endchar
        </CharString>
        <CharString name="cid11654" fdSelectIndex="2">
          endchar
        </CharString>
        <CharString name="cid11660" fdSelectIndex="2">
          endchar
        </CharString>
        <CharString name="cid11661" fdSelectIndex="2">
          endchar
        </CharString>
        <CharString name="cid11665" fdSelectIndex="2">
          endchar
        </CharString>
        <CharString name="cid11666" fdSelectIndex="2">
          endchar
        </CharString>
        <CharString name="cid11675" fdSelectIndex="2">
          endchar
        </CharString>
        <CharString name="cid11676" fdSelectIndex="2">
          endchar
        </CharString>
        <CharString name="cid11677" fdSelectIndex="2">
          endchar
        </CharString>
        <CharString name="cid11678" fdSelectIndex="2">
          endchar
        </CharString>
        <CharString name="cid11679" fdSelectIndex="2">
          endchar
        </CharString>
        <CharString name="cid11685" fdSelectIndex="2">
          endchar
        </CharString>
        <CharString name="cid11686" fdSelectIndex="2">
          endchar
        </CharString>
        <CharString name="cid11687" fdSelectIndex="2">
          endchar
        </CharString>
        <CharString name="cid11688" fdSelectIndex="2">
          endchar
        </CharString>
        <CharString name="cid11689" fdSelectIndex="2">
          endchar
        </CharString>
        <CharString name="cid11696" fdSelectIndex="2">
          endchar
        </CharString>
        <CharString name="cid11697" fdSelectIndex="2">
          endchar
        </CharString>
        <CharString name="cid11698" fdSelectIndex="2">
          endchar
        </CharString>
        <CharString name="cid11699" fdSelectIndex="2">
          endchar
        </CharString>
        <CharString name="cid11700" fdSelectIndex="2">
          endchar
        </CharString>
        <CharString name="cid11701" fdSelectIndex="2">
          endchar
        </CharString>
        <CharString name="cid11702" fdSelectIndex="2">
          endchar
        </CharString>
        <CharString name="cid11703" fdSelectIndex="2">
          endchar
        </CharString>
        <CharString name="cid11708" fdSelectIndex="2">
          endchar
        </CharString>
        <CharString name="cid11709" fdSelectIndex="2">
          endchar
        </CharString>
        <CharString name="cid11710" fdSelectIndex="2">
          endchar
        </CharString>
        <CharString name="cid11723" fdSelectIndex="2">
          endchar
        </CharString>
        <CharString name="cid11724" fdSelectIndex="2">
          endchar
        </CharString>
        <CharString name="cid11732" fdSelectIndex="2">
          endchar
        </CharString>
        <CharString name="cid11738" fdSelectIndex="2">
          endchar
        </CharString>
        <CharString name="cid11739" fdSelectIndex="2">
          endchar
        </CharString>
        <CharString name="cid11740" fdSelectIndex="2">
          endchar
        </CharString>
        <CharString name="cid11741" fdSelectIndex="2">
          endchar
        </CharString>
        <CharString name="cid11742" fdSelectIndex="2">
          endchar
        </CharString>
        <CharString name="cid11743" fdSelectIndex="2">
          endchar
        </CharString>
        <CharString name="cid11744" fdSelectIndex="2">
          endchar
        </CharString>
        <CharString name="cid11750" fdSelectIndex="2">
          endchar
        </CharString>
        <CharString name="cid11751" fdSelectIndex="2">
          endchar
        </CharString>
        <CharString name="cid11761" fdSelectIndex="2">
          endchar
        </CharString>
        <CharString name="cid11762" fdSelectIndex="2">
          endchar
        </CharString>
        <CharString name="cid11778" fdSelectIndex="2">
          endchar
        </CharString>
        <CharString name="cid11782" fdSelectIndex="2">
          endchar
        </CharString>
        <CharString name="cid11783" fdSelectIndex="2">
          endchar
        </CharString>
        <CharString name="cid11784" fdSelectIndex="2">
          endchar
        </CharString>
        <CharString name="cid11787" fdSelectIndex="2">
          endchar
        </CharString>
        <CharString name="cid11788" fdSelectIndex="2">
          endchar
        </CharString>
        <CharString name="cid11796" fdSelectIndex="2">
          endchar
        </CharString>
        <CharString name="cid11797" fdSelectIndex="2">
          endchar
        </CharString>
        <CharString name="cid11798" fdSelectIndex="2">
          endchar
        </CharString>
        <CharString name="cid11799" fdSelectIndex="2">
          endchar
        </CharString>
        <CharString name="cid11800" fdSelectIndex="2">
          endchar
        </CharString>
        <CharString name="cid11801" fdSelectIndex="2">
          endchar
        </CharString>
        <CharString name="cid11808" fdSelectIndex="2">
          endchar
        </CharString>
        <CharString name="cid11812" fdSelectIndex="2">
          endchar
        </CharString>
        <CharString name="cid11820" fdSelectIndex="2">
          endchar
        </CharString>
        <CharString name="cid11821" fdSelectIndex="2">
          endchar
        </CharString>
        <CharString name="cid11829" fdSelectIndex="2">
          endchar
        </CharString>
        <CharString name="cid11830" fdSelectIndex="2">
          endchar
        </CharString>
        <CharString name="cid11834" fdSelectIndex="2">
          endchar
        </CharString>
        <CharString name="cid11836" fdSelectIndex="2">
          endchar
        </CharString>
        <CharString name="cid11837" fdSelectIndex="2">
          endchar
        </CharString>
        <CharString name="cid11840" fdSelectIndex="2">
          endchar
        </CharString>
        <CharString name="cid11843" fdSelectIndex="2">
          endchar
        </CharString>
        <CharString name="cid11844" fdSelectIndex="2">
          endchar
        </CharString>
        <CharString name="cid11845" fdSelectIndex="2">
          endchar
        </CharString>
        <CharString name="cid11848" fdSelectIndex="2">
          endchar
        </CharString>
        <CharString name="cid11849" fdSelectIndex="2">
          endchar
        </CharString>
        <CharString name="cid11855" fdSelectIndex="2">
          endchar
        </CharString>
        <CharString name="cid11856" fdSelectIndex="2">
          endchar
        </CharString>
        <CharString name="cid11863" fdSelectIndex="2">
          endchar
        </CharString>
        <CharString name="cid11867" fdSelectIndex="2">
          endchar
        </CharString>
        <CharString name="cid11870" fdSelectIndex="2">
          endchar
        </CharString>
        <CharString name="cid11871" fdSelectIndex="2">
          endchar
        </CharString>
        <CharString name="cid11872" fdSelectIndex="2">
          endchar
        </CharString>
        <CharString name="cid11873" fdSelectIndex="2">
          endchar
        </CharString>
        <CharString name="cid11874" fdSelectIndex="2">
          endchar
        </CharString>
        <CharString name="cid11879" fdSelectIndex="2">
          endchar
        </CharString>
        <CharString name="cid11880" fdSelectIndex="2">
          endchar
        </CharString>
        <CharString name="cid11881" fdSelectIndex="2">
          endchar
        </CharString>
        <CharString name="cid11882" fdSelectIndex="2">
          endchar
        </CharString>
        <CharString name="cid11883" fdSelectIndex="2">
          endchar
        </CharString>
        <CharString name="cid11884" fdSelectIndex="2">
          endchar
        </CharString>
        <CharString name="cid11890" fdSelectIndex="2">
          endchar
        </CharString>
        <CharString name="cid11891" fdSelectIndex="2">
          endchar
        </CharString>
        <CharString name="cid11892" fdSelectIndex="2">
          endchar
        </CharString>
        <CharString name="cid11894" fdSelectIndex="2">
          endchar
        </CharString>
        <CharString name="cid11895" fdSelectIndex="2">
          endchar
        </CharString>
        <CharString name="cid11899" fdSelectIndex="2">
          endchar
        </CharString>
        <CharString name="cid11900" fdSelectIndex="2">
          endchar
        </CharString>
        <CharString name="cid11915" fdSelectIndex="2">
          endchar
        </CharString>
        <CharString name="cid11916" fdSelectIndex="2">
          endchar
        </CharString>
        <CharString name="cid11917" fdSelectIndex="2">
          endchar
        </CharString>
        <CharString name="cid11929" fdSelectIndex="2">
          endchar
        </CharString>
        <CharString name="cid11930" fdSelectIndex="2">
          endchar
        </CharString>
        <CharString name="cid11935" fdSelectIndex="2">
          endchar
        </CharString>
        <CharString name="cid11936" fdSelectIndex="2">
          endchar
        </CharString>
        <CharString name="cid11937" fdSelectIndex="2">
          endchar
        </CharString>
        <CharString name="cid11940" fdSelectIndex="2">
          endchar
        </CharString>
        <CharString name="cid11941" fdSelectIndex="2">
          endchar
        </CharString>
        <CharString name="cid11942" fdSelectIndex="2">
          endchar
        </CharString>
        <CharString name="cid11946" fdSelectIndex="2">
          endchar
        </CharString>
        <CharString name="cid11947" fdSelectIndex="2">
          endchar
        </CharString>
        <CharString name="cid11948" fdSelectIndex="2">
          endchar
        </CharString>
        <CharString name="cid11949" fdSelectIndex="2">
          endchar
        </CharString>
        <CharString name="cid11952" fdSelectIndex="2">
          endchar
        </CharString>
        <CharString name="cid11953" fdSelectIndex="2">
          endchar
        </CharString>
        <CharString name="cid11961" fdSelectIndex="2">
          endchar
        </CharString>
        <CharString name="cid11966" fdSelectIndex="2">
          endchar
        </CharString>
        <CharString name="cid11975" fdSelectIndex="2">
          endchar
        </CharString>
        <CharString name="cid11976" fdSelectIndex="2">
          endchar
        </CharString>
        <CharString name="cid11977" fdSelectIndex="2">
          endchar
        </CharString>
        <CharString name="cid11978" fdSelectIndex="2">
          endchar
        </CharString>
        <CharString name="cid11979" fdSelectIndex="2">
          endchar
        </CharString>
        <CharString name="cid11980" fdSelectIndex="2">
          endchar
        </CharString>
        <CharString name="cid11981" fdSelectIndex="2">
          endchar
        </CharString>
        <CharString name="cid11984" fdSelectIndex="2">
          endchar
        </CharString>
        <CharString name="cid11985" fdSelectIndex="2">
          endchar
        </CharString>
        <CharString name="cid11986" fdSelectIndex="2">
          endchar
        </CharString>
        <CharString name="cid11987" fdSelectIndex="2">
          endchar
        </CharString>
        <CharString name="cid11993" fdSelectIndex="2">
          endchar
        </CharString>
        <CharString name="cid11994" fdSelectIndex="2">
          endchar
        </CharString>
        <CharString name="cid11999" fdSelectIndex="2">
          endchar
        </CharString>
        <CharString name="cid12000" fdSelectIndex="2">
          endchar
        </CharString>
        <CharString name="cid12001" fdSelectIndex="2">
          endchar
        </CharString>
        <CharString name="cid12002" fdSelectIndex="2">
          endchar
        </CharString>
        <CharString name="cid12017" fdSelectIndex="2">
          endchar
        </CharString>
        <CharString name="cid12018" fdSelectIndex="2">
          endchar
        </CharString>
        <CharString name="cid12019" fdSelectIndex="2">
          endchar
        </CharString>
        <CharString name="cid12045" fdSelectIndex="2">
          endchar
        </CharString>
        <CharString name="cid12046" fdSelectIndex="2">
          endchar
        </CharString>
        <CharString name="cid12047" fdSelectIndex="2">
          endchar
        </CharString>
        <CharString name="cid12048" fdSelectIndex="2">
          endchar
        </CharString>
        <CharString name="cid12049" fdSelectIndex="2">
          endchar
        </CharString>
        <CharString name="cid12050" fdSelectIndex="2">
          endchar
        </CharString>
        <CharString name="cid12051" fdSelectIndex="2">
          endchar
        </CharString>
        <CharString name="cid12052" fdSelectIndex="2">
          endchar
        </CharString>
        <CharString name="cid12053" fdSelectIndex="2">
          endchar
        </CharString>
        <CharString name="cid12054" fdSelectIndex="2">
          endchar
        </CharString>
        <CharString name="cid12065" fdSelectIndex="2">
          endchar
        </CharString>
        <CharString name="cid12066" fdSelectIndex="2">
          endchar
        </CharString>
        <CharString name="cid12067" fdSelectIndex="2">
          endchar
        </CharString>
        <CharString name="cid12068" fdSelectIndex="2">
          endchar
        </CharString>
        <CharString name="cid12069" fdSelectIndex="2">
          endchar
        </CharString>
        <CharString name="cid12070" fdSelectIndex="2">
          endchar
        </CharString>
        <CharString name="cid12071" fdSelectIndex="2">
          endchar
        </CharString>
        <CharString name="cid12074" fdSelectIndex="2">
          endchar
        </CharString>
        <CharString name="cid12076" fdSelectIndex="2">
          endchar
        </CharString>
        <CharString name="cid12077" fdSelectIndex="2">
          endchar
        </CharString>
        <CharString name="cid12078" fdSelectIndex="2">
          endchar
        </CharString>
        <CharString name="cid12079" fdSelectIndex="2">
          endchar
        </CharString>
        <CharString name="cid12081" fdSelectIndex="2">
          endchar
        </CharString>
        <CharString name="cid12085" fdSelectIndex="2">
          endchar
        </CharString>
        <CharString name="cid12089" fdSelectIndex="2">
          endchar
        </CharString>
        <CharString name="cid12090" fdSelectIndex="2">
          endchar
        </CharString>
        <CharString name="cid12091" fdSelectIndex="2">
          endchar
        </CharString>
        <CharString name="cid12092" fdSelectIndex="2">
          endchar
        </CharString>
        <CharString name="cid12093" fdSelectIndex="2">
          endchar
        </CharString>
        <CharString name="cid12094" fdSelectIndex="2">
          endchar
        </CharString>
        <CharString name="cid12095" fdSelectIndex="2">
          endchar
        </CharString>
        <CharString name="cid12098" fdSelectIndex="2">
          endchar
        </CharString>
        <CharString name="cid12099" fdSelectIndex="2">
          endchar
        </CharString>
        <CharString name="cid12102" fdSelectIndex="2">
          endchar
        </CharString>
        <CharString name="cid12103" fdSelectIndex="2">
          endchar
        </CharString>
        <CharString name="cid12104" fdSelectIndex="2">
          endchar
        </CharString>
        <CharString name="cid12107" fdSelectIndex="2">
          endchar
        </CharString>
        <CharString name="cid12113" fdSelectIndex="2">
          endchar
        </CharString>
        <CharString name="cid12121" fdSelectIndex="2">
          endchar
        </CharString>
        <CharString name="cid12122" fdSelectIndex="2">
          endchar
        </CharString>
        <CharString name="cid12127" fdSelectIndex="2">
          endchar
        </CharString>
        <CharString name="cid12135" fdSelectIndex="2">
          endchar
        </CharString>
        <CharString name="cid12136" fdSelectIndex="2">
          endchar
        </CharString>
        <CharString name="cid12137" fdSelectIndex="2">
          endchar
        </CharString>
        <CharString name="cid12138" fdSelectIndex="2">
          endchar
        </CharString>
        <CharString name="cid12139" fdSelectIndex="2">
          endchar
        </CharString>
        <CharString name="cid12140" fdSelectIndex="2">
          endchar
        </CharString>
        <CharString name="cid12141" fdSelectIndex="2">
          endchar
        </CharString>
        <CharString name="cid12143" fdSelectIndex="2">
          endchar
        </CharString>
        <CharString name="cid12144" fdSelectIndex="2">
          endchar
        </CharString>
        <CharString name="cid12145" fdSelectIndex="2">
          endchar
        </CharString>
        <CharString name="cid12146" fdSelectIndex="2">
          endchar
        </CharString>
        <CharString name="cid12147" fdSelectIndex="2">
          endchar
        </CharString>
        <CharString name="cid12148" fdSelectIndex="2">
          endchar
        </CharString>
        <CharString name="cid12150" fdSelectIndex="2">
          endchar
        </CharString>
        <CharString name="cid12151" fdSelectIndex="2">
          endchar
        </CharString>
        <CharString name="cid12152" fdSelectIndex="2">
          endchar
        </CharString>
        <CharString name="cid12153" fdSelectIndex="2">
          endchar
        </CharString>
        <CharString name="cid12166" fdSelectIndex="2">
          endchar
        </CharString>
        <CharString name="cid12167" fdSelectIndex="2">
          endchar
        </CharString>
        <CharString name="cid12170" fdSelectIndex="2">
          endchar
        </CharString>
        <CharString name="cid12172" fdSelectIndex="2">
          endchar
        </CharString>
        <CharString name="cid12198" fdSelectIndex="2">
          endchar
        </CharString>
        <CharString name="cid12200" fdSelectIndex="2">
          endchar
        </CharString>
        <CharString name="cid12201" fdSelectIndex="2">
          endchar
        </CharString>
        <CharString name="cid12209" fdSelectIndex="2">
          endchar
        </CharString>
        <CharString name="cid12210" fdSelectIndex="2">
          endchar
        </CharString>
        <CharString name="cid12211" fdSelectIndex="2">
          endchar
        </CharString>
        <CharString name="cid12216" fdSelectIndex="2">
          endchar
        </CharString>
        <CharString name="cid12217" fdSelectIndex="2">
          endchar
        </CharString>
        <CharString name="cid12218" fdSelectIndex="2">
          endchar
        </CharString>
        <CharString name="cid12219" fdSelectIndex="2">
          endchar
        </CharString>
        <CharString name="cid12221" fdSelectIndex="2">
          endchar
        </CharString>
        <CharString name="cid12222" fdSelectIndex="2">
          endchar
        </CharString>
        <CharString name="cid12223" fdSelectIndex="2">
          endchar
        </CharString>
        <CharString name="cid12224" fdSelectIndex="2">
          endchar
        </CharString>
        <CharString name="cid12231" fdSelectIndex="2">
          endchar
        </CharString>
        <CharString name="cid12232" fdSelectIndex="2">
          endchar
        </CharString>
        <CharString name="cid12241" fdSelectIndex="2">
          endchar
        </CharString>
        <CharString name="cid12242" fdSelectIndex="2">
          endchar
        </CharString>
        <CharString name="cid12246" fdSelectIndex="2">
          endchar
        </CharString>
        <CharString name="cid12247" fdSelectIndex="2">
          endchar
        </CharString>
        <CharString name="cid12256" fdSelectIndex="2">
          endchar
        </CharString>
        <CharString name="cid12257" fdSelectIndex="2">
          endchar
        </CharString>
        <CharString name="cid12267" fdSelectIndex="2">
          endchar
        </CharString>
        <CharString name="cid12268" fdSelectIndex="2">
          endchar
        </CharString>
        <CharString name="cid12269" fdSelectIndex="2">
          endchar
        </CharString>
        <CharString name="cid12270" fdSelectIndex="2">
          endchar
        </CharString>
        <CharString name="cid12277" fdSelectIndex="2">
          endchar
        </CharString>
        <CharString name="cid12278" fdSelectIndex="2">
          endchar
        </CharString>
        <CharString name="cid12279" fdSelectIndex="2">
          endchar
        </CharString>
        <CharString name="cid12280" fdSelectIndex="2">
          endchar
        </CharString>
        <CharString name="cid12281" fdSelectIndex="2">
          endchar
        </CharString>
        <CharString name="cid12282" fdSelectIndex="2">
          endchar
        </CharString>
        <CharString name="cid12283" fdSelectIndex="2">
          endchar
        </CharString>
        <CharString name="cid12284" fdSelectIndex="2">
          endchar
        </CharString>
        <CharString name="cid12285" fdSelectIndex="2">
          endchar
        </CharString>
        <CharString name="cid12286" fdSelectIndex="2">
          endchar
        </CharString>
        <CharString name="cid12287" fdSelectIndex="2">
          endchar
        </CharString>
        <CharString name="cid12288" fdSelectIndex="2">
          endchar
        </CharString>
        <CharString name="cid12289" fdSelectIndex="2">
          endchar
        </CharString>
        <CharString name="cid12296" fdSelectIndex="2">
          endchar
        </CharString>
        <CharString name="cid12298" fdSelectIndex="2">
          endchar
        </CharString>
        <CharString name="cid12299" fdSelectIndex="2">
          endchar
        </CharString>
        <CharString name="cid12300" fdSelectIndex="2">
          endchar
        </CharString>
        <CharString name="cid12302" fdSelectIndex="2">
          endchar
        </CharString>
        <CharString name="cid12303" fdSelectIndex="2">
          endchar
        </CharString>
        <CharString name="cid12305" fdSelectIndex="2">
          endchar
        </CharString>
        <CharString name="cid12306" fdSelectIndex="2">
          endchar
        </CharString>
        <CharString name="cid12307" fdSelectIndex="2">
          endchar
        </CharString>
        <CharString name="cid12312" fdSelectIndex="2">
          endchar
        </CharString>
        <CharString name="cid12313" fdSelectIndex="2">
          endchar
        </CharString>
        <CharString name="cid12314" fdSelectIndex="2">
          endchar
        </CharString>
        <CharString name="cid12317" fdSelectIndex="2">
          endchar
        </CharString>
        <CharString name="cid12318" fdSelectIndex="2">
          endchar
        </CharString>
        <CharString name="cid12319" fdSelectIndex="2">
          endchar
        </CharString>
        <CharString name="cid12320" fdSelectIndex="2">
          endchar
        </CharString>
        <CharString name="cid12321" fdSelectIndex="2">
          endchar
        </CharString>
        <CharString name="cid12322" fdSelectIndex="2">
          endchar
        </CharString>
        <CharString name="cid12323" fdSelectIndex="2">
          endchar
        </CharString>
        <CharString name="cid12328" fdSelectIndex="2">
          endchar
        </CharString>
        <CharString name="cid12329" fdSelectIndex="2">
          endchar
        </CharString>
        <CharString name="cid12330" fdSelectIndex="2">
          endchar
        </CharString>
        <CharString name="cid12331" fdSelectIndex="2">
          endchar
        </CharString>
        <CharString name="cid12332" fdSelectIndex="2">
          endchar
        </CharString>
        <CharString name="cid12333" fdSelectIndex="2">
          endchar
        </CharString>
        <CharString name="cid12334" fdSelectIndex="2">
          endchar
        </CharString>
        <CharString name="cid12335" fdSelectIndex="2">
          endchar
        </CharString>
        <CharString name="cid12336" fdSelectIndex="2">
          endchar
        </CharString>
        <CharString name="cid12337" fdSelectIndex="2">
          endchar
        </CharString>
        <CharString name="cid12338" fdSelectIndex="2">
          endchar
        </CharString>
        <CharString name="cid12339" fdSelectIndex="2">
          endchar
        </CharString>
        <CharString name="cid12340" fdSelectIndex="2">
          endchar
        </CharString>
        <CharString name="cid12341" fdSelectIndex="2">
          endchar
        </CharString>
        <CharString name="cid12342" fdSelectIndex="2">
          endchar
        </CharString>
        <CharString name="cid12343" fdSelectIndex="2">
          endchar
        </CharString>
        <CharString name="cid12344" fdSelectIndex="2">
          endchar
        </CharString>
        <CharString name="cid12348" fdSelectIndex="2">
          endchar
        </CharString>
        <CharString name="cid12349" fdSelectIndex="2">
          endchar
        </CharString>
        <CharString name="cid12350" fdSelectIndex="2">
          endchar
        </CharString>
        <CharString name="cid12351" fdSelectIndex="2">
          endchar
        </CharString>
        <CharString name="cid12352" fdSelectIndex="2">
          endchar
        </CharString>
        <CharString name="cid12354" fdSelectIndex="2">
          endchar
        </CharString>
        <CharString name="cid12355" fdSelectIndex="2">
          endchar
        </CharString>
        <CharString name="cid12367" fdSelectIndex="2">
          endchar
        </CharString>
        <CharString name="cid12368" fdSelectIndex="2">
          endchar
        </CharString>
        <CharString name="cid12373" fdSelectIndex="2">
          endchar
        </CharString>
        <CharString name="cid12374" fdSelectIndex="2">
          endchar
        </CharString>
        <CharString name="cid12375" fdSelectIndex="2">
          endchar
        </CharString>
        <CharString name="cid12376" fdSelectIndex="2">
          endchar
        </CharString>
        <CharString name="cid12377" fdSelectIndex="2">
          endchar
        </CharString>
        <CharString name="cid12378" fdSelectIndex="2">
          endchar
        </CharString>
        <CharString name="cid12379" fdSelectIndex="2">
          endchar
        </CharString>
        <CharString name="cid12380" fdSelectIndex="2">
          endchar
        </CharString>
        <CharString name="cid12381" fdSelectIndex="2">
          endchar
        </CharString>
        <CharString name="cid12382" fdSelectIndex="2">
          endchar
        </CharString>
        <CharString name="cid12383" fdSelectIndex="2">
          endchar
        </CharString>
        <CharString name="cid12384" fdSelectIndex="2">
          endchar
        </CharString>
        <CharString name="cid12385" fdSelectIndex="2">
          endchar
        </CharString>
        <CharString name="cid12386" fdSelectIndex="2">
          endchar
        </CharString>
        <CharString name="cid12400" fdSelectIndex="2">
          endchar
        </CharString>
        <CharString name="cid12403" fdSelectIndex="2">
          endchar
        </CharString>
        <CharString name="cid12404" fdSelectIndex="2">
          endchar
        </CharString>
        <CharString name="cid12406" fdSelectIndex="2">
          endchar
        </CharString>
        <CharString name="cid12407" fdSelectIndex="2">
          endchar
        </CharString>
        <CharString name="cid12408" fdSelectIndex="2">
          endchar
        </CharString>
        <CharString name="cid12409" fdSelectIndex="2">
          endchar
        </CharString>
        <CharString name="cid12410" fdSelectIndex="2">
          endchar
        </CharString>
        <CharString name="cid12420" fdSelectIndex="2">
          endchar
        </CharString>
        <CharString name="cid12424" fdSelectIndex="2">
          endchar
        </CharString>
        <CharString name="cid12425" fdSelectIndex="2">
          endchar
        </CharString>
        <CharString name="cid12426" fdSelectIndex="2">
          endchar
        </CharString>
        <CharString name="cid12429" fdSelectIndex="2">
          endchar
        </CharString>
        <CharString name="cid12430" fdSelectIndex="2">
          endchar
        </CharString>
        <CharString name="cid12431" fdSelectIndex="2">
          endchar
        </CharString>
        <CharString name="cid12432" fdSelectIndex="2">
          endchar
        </CharString>
        <CharString name="cid12433" fdSelectIndex="2">
          endchar
        </CharString>
        <CharString name="cid12434" fdSelectIndex="2">
          endchar
        </CharString>
        <CharString name="cid12435" fdSelectIndex="2">
          endchar
        </CharString>
        <CharString name="cid12455" fdSelectIndex="2">
          endchar
        </CharString>
        <CharString name="cid12456" fdSelectIndex="2">
          endchar
        </CharString>
        <CharString name="cid12457" fdSelectIndex="2">
          endchar
        </CharString>
        <CharString name="cid12458" fdSelectIndex="2">
          endchar
        </CharString>
        <CharString name="cid12460" fdSelectIndex="2">
          endchar
        </CharString>
        <CharString name="cid12461" fdSelectIndex="2">
          endchar
        </CharString>
        <CharString name="cid12462" fdSelectIndex="2">
          endchar
        </CharString>
        <CharString name="cid12463" fdSelectIndex="2">
          endchar
        </CharString>
        <CharString name="cid12464" fdSelectIndex="2">
          endchar
        </CharString>
        <CharString name="cid12473" fdSelectIndex="2">
          endchar
        </CharString>
        <CharString name="cid12478" fdSelectIndex="2">
          endchar
        </CharString>
        <CharString name="cid12479" fdSelectIndex="2">
          endchar
        </CharString>
        <CharString name="cid12481" fdSelectIndex="2">
          endchar
        </CharString>
        <CharString name="cid12482" fdSelectIndex="2">
          endchar
        </CharString>
        <CharString name="cid12483" fdSelectIndex="2">
          endchar
        </CharString>
        <CharString name="cid12484" fdSelectIndex="2">
          endchar
        </CharString>
        <CharString name="cid12485" fdSelectIndex="2">
          endchar
        </CharString>
        <CharString name="cid12486" fdSelectIndex="2">
          endchar
        </CharString>
        <CharString name="cid12487" fdSelectIndex="2">
          endchar
        </CharString>
        <CharString name="cid12492" fdSelectIndex="2">
          endchar
        </CharString>
        <CharString name="cid12495" fdSelectIndex="2">
          endchar
        </CharString>
        <CharString name="cid12511" fdSelectIndex="2">
          endchar
        </CharString>
        <CharString name="cid12512" fdSelectIndex="2">
          endchar
        </CharString>
        <CharString name="cid12527" fdSelectIndex="2">
          endchar
        </CharString>
        <CharString name="cid12528" fdSelectIndex="2">
          endchar
        </CharString>
        <CharString name="cid12531" fdSelectIndex="2">
          endchar
        </CharString>
        <CharString name="cid12541" fdSelectIndex="2">
          endchar
        </CharString>
        <CharString name="cid12542" fdSelectIndex="2">
          endchar
        </CharString>
        <CharString name="cid12543" fdSelectIndex="2">
          endchar
        </CharString>
        <CharString name="cid12546" fdSelectIndex="2">
          endchar
        </CharString>
        <CharString name="cid12548" fdSelectIndex="2">
          endchar
        </CharString>
        <CharString name="cid12552" fdSelectIndex="2">
          endchar
        </CharString>
        <CharString name="cid12557" fdSelectIndex="2">
          endchar
        </CharString>
        <CharString name="cid12558" fdSelectIndex="2">
          endchar
        </CharString>
        <CharString name="cid12559" fdSelectIndex="2">
          endchar
        </CharString>
        <CharString name="cid12560" fdSelectIndex="2">
          endchar
        </CharString>
        <CharString name="cid12564" fdSelectIndex="2">
          endchar
        </CharString>
        <CharString name="cid12569" fdSelectIndex="2">
          endchar
        </CharString>
        <CharString name="cid12570" fdSelectIndex="2">
          endchar
        </CharString>
        <CharString name="cid12573" fdSelectIndex="2">
          endchar
        </CharString>
        <CharString name="cid12579" fdSelectIndex="2">
          endchar
        </CharString>
        <CharString name="cid12580" fdSelectIndex="2">
          endchar
        </CharString>
        <CharString name="cid12583" fdSelectIndex="2">
          endchar
        </CharString>
        <CharString name="cid12584" fdSelectIndex="2">
          endchar
        </CharString>
        <CharString name="cid12585" fdSelectIndex="2">
          endchar
        </CharString>
        <CharString name="cid12587" fdSelectIndex="2">
          endchar
        </CharString>
        <CharString name="cid12589" fdSelectIndex="2">
          endchar
        </CharString>
        <CharString name="cid12610" fdSelectIndex="2">
          endchar
        </CharString>
        <CharString name="cid12611" fdSelectIndex="2">
          endchar
        </CharString>
        <CharString name="cid12614" fdSelectIndex="2">
          endchar
        </CharString>
        <CharString name="cid12615" fdSelectIndex="2">
          endchar
        </CharString>
        <CharString name="cid12616" fdSelectIndex="2">
          endchar
        </CharString>
        <CharString name="cid12617" fdSelectIndex="2">
          endchar
        </CharString>
        <CharString name="cid12623" fdSelectIndex="2">
          endchar
        </CharString>
        <CharString name="cid12624" fdSelectIndex="2">
          endchar
        </CharString>
        <CharString name="cid12625" fdSelectIndex="2">
          endchar
        </CharString>
        <CharString name="cid12630" fdSelectIndex="2">
          endchar
        </CharString>
        <CharString name="cid12631" fdSelectIndex="2">
          endchar
        </CharString>
        <CharString name="cid12632" fdSelectIndex="2">
          endchar
        </CharString>
        <CharString name="cid12635" fdSelectIndex="2">
          endchar
        </CharString>
        <CharString name="cid12636" fdSelectIndex="2">
          endchar
        </CharString>
        <CharString name="cid12639" fdSelectIndex="2">
          endchar
        </CharString>
        <CharString name="cid12640" fdSelectIndex="2">
          endchar
        </CharString>
        <CharString name="cid12641" fdSelectIndex="2">
          endchar
        </CharString>
        <CharString name="cid12642" fdSelectIndex="2">
          endchar
        </CharString>
        <CharString name="cid12648" fdSelectIndex="2">
          endchar
        </CharString>
        <CharString name="cid12654" fdSelectIndex="2">
          endchar
        </CharString>
        <CharString name="cid12655" fdSelectIndex="2">
          endchar
        </CharString>
        <CharString name="cid12656" fdSelectIndex="2">
          endchar
        </CharString>
        <CharString name="cid12657" fdSelectIndex="2">
          endchar
        </CharString>
        <CharString name="cid12658" fdSelectIndex="2">
          endchar
        </CharString>
        <CharString name="cid12659" fdSelectIndex="2">
          endchar
        </CharString>
        <CharString name="cid12661" fdSelectIndex="2">
          endchar
        </CharString>
        <CharString name="cid12662" fdSelectIndex="2">
          endchar
        </CharString>
        <CharString name="cid12663" fdSelectIndex="2">
          endchar
        </CharString>
        <CharString name="cid12664" fdSelectIndex="2">
          endchar
        </CharString>
        <CharString name="cid12666" fdSelectIndex="2">
          endchar
        </CharString>
        <CharString name="cid12671" fdSelectIndex="2">
          endchar
        </CharString>
        <CharString name="cid12672" fdSelectIndex="2">
          endchar
        </CharString>
        <CharString name="cid12673" fdSelectIndex="2">
          endchar
        </CharString>
        <CharString name="cid12674" fdSelectIndex="2">
          endchar
        </CharString>
        <CharString name="cid12691" fdSelectIndex="2">
          endchar
        </CharString>
        <CharString name="cid12702" fdSelectIndex="2">
          endchar
        </CharString>
        <CharString name="cid12703" fdSelectIndex="2">
          endchar
        </CharString>
        <CharString name="cid12704" fdSelectIndex="2">
          endchar
        </CharString>
        <CharString name="cid12710" fdSelectIndex="2">
          endchar
        </CharString>
        <CharString name="cid12712" fdSelectIndex="2">
          endchar
        </CharString>
        <CharString name="cid12713" fdSelectIndex="2">
          endchar
        </CharString>
        <CharString name="cid12714" fdSelectIndex="2">
          endchar
        </CharString>
        <CharString name="cid12715" fdSelectIndex="2">
          endchar
        </CharString>
        <CharString name="cid12720" fdSelectIndex="2">
          endchar
        </CharString>
        <CharString name="cid12721" fdSelectIndex="2">
          endchar
        </CharString>
        <CharString name="cid12722" fdSelectIndex="2">
          endchar
        </CharString>
        <CharString name="cid12723" fdSelectIndex="2">
          endchar
        </CharString>
        <CharString name="cid12728" fdSelectIndex="2">
          endchar
        </CharString>
        <CharString name="cid12729" fdSelectIndex="2">
          endchar
        </CharString>
        <CharString name="cid12740" fdSelectIndex="2">
          endchar
        </CharString>
        <CharString name="cid12744" fdSelectIndex="2">
          endchar
        </CharString>
        <CharString name="cid12755" fdSelectIndex="2">
          endchar
        </CharString>
        <CharString name="cid12759" fdSelectIndex="2">
          endchar
        </CharString>
        <CharString name="cid12760" fdSelectIndex="2">
          endchar
        </CharString>
        <CharString name="cid12761" fdSelectIndex="2">
          endchar
        </CharString>
        <CharString name="cid12762" fdSelectIndex="2">
          endchar
        </CharString>
        <CharString name="cid12763" fdSelectIndex="2">
          endchar
        </CharString>
        <CharString name="cid12764" fdSelectIndex="2">
          endchar
        </CharString>
        <CharString name="cid12777" fdSelectIndex="2">
          endchar
        </CharString>
        <CharString name="cid12778" fdSelectIndex="2">
          endchar
        </CharString>
        <CharString name="cid12779" fdSelectIndex="2">
          endchar
        </CharString>
        <CharString name="cid12784" fdSelectIndex="2">
          endchar
        </CharString>
        <CharString name="cid12786" fdSelectIndex="2">
          endchar
        </CharString>
        <CharString name="cid12819" fdSelectIndex="2">
          endchar
        </CharString>
        <CharString name="cid12820" fdSelectIndex="2">
          endchar
        </CharString>
        <CharString name="cid12822" fdSelectIndex="2">
          endchar
        </CharString>
        <CharString name="cid12825" fdSelectIndex="2">
          endchar
        </CharString>
        <CharString name="cid12826" fdSelectIndex="2">
          endchar
        </CharString>
        <CharString name="cid12827" fdSelectIndex="2">
          endchar
        </CharString>
        <CharString name="cid12835" fdSelectIndex="2">
          endchar
        </CharString>
        <CharString name="cid12836" fdSelectIndex="2">
          endchar
        </CharString>
        <CharString name="cid12837" fdSelectIndex="2">
          endchar
        </CharString>
        <CharString name="cid12847" fdSelectIndex="2">
          endchar
        </CharString>
        <CharString name="cid12848" fdSelectIndex="2">
          endchar
        </CharString>
        <CharString name="cid12851" fdSelectIndex="2">
          endchar
        </CharString>
        <CharString name="cid12852" fdSelectIndex="2">
          endchar
        </CharString>
        <CharString name="cid12860" fdSelectIndex="2">
          endchar
        </CharString>
        <CharString name="cid12861" fdSelectIndex="2">
          endchar
        </CharString>
        <CharString name="cid12862" fdSelectIndex="2">
          endchar
        </CharString>
        <CharString name="cid12863" fdSelectIndex="2">
          endchar
        </CharString>
        <CharString name="cid12864" fdSelectIndex="2">
          endchar
        </CharString>
        <CharString name="cid12865" fdSelectIndex="2">
          endchar
        </CharString>
        <CharString name="cid12866" fdSelectIndex="2">
          endchar
        </CharString>
        <CharString name="cid12874" fdSelectIndex="2">
          endchar
        </CharString>
        <CharString name="cid12875" fdSelectIndex="2">
          endchar
        </CharString>
        <CharString name="cid12879" fdSelectIndex="2">
          endchar
        </CharString>
        <CharString name="cid12884" fdSelectIndex="2">
          endchar
        </CharString>
        <CharString name="cid12885" fdSelectIndex="2">
          endchar
        </CharString>
        <CharString name="cid12886" fdSelectIndex="2">
          endchar
        </CharString>
        <CharString name="cid12890" fdSelectIndex="2">
          endchar
        </CharString>
        <CharString name="cid12891" fdSelectIndex="2">
          endchar
        </CharString>
        <CharString name="cid12892" fdSelectIndex="2">
          endchar
        </CharString>
        <CharString name="cid12893" fdSelectIndex="2">
          endchar
        </CharString>
        <CharString name="cid12894" fdSelectIndex="2">
          endchar
        </CharString>
        <CharString name="cid12902" fdSelectIndex="2">
          endchar
        </CharString>
        <CharString name="cid12903" fdSelectIndex="2">
          endchar
        </CharString>
        <CharString name="cid12906" fdSelectIndex="2">
          endchar
        </CharString>
        <CharString name="cid12946" fdSelectIndex="2">
          endchar
        </CharString>
        <CharString name="cid12947" fdSelectIndex="2">
          endchar
        </CharString>
        <CharString name="cid12950" fdSelectIndex="2">
          endchar
        </CharString>
        <CharString name="cid12951" fdSelectIndex="2">
          endchar
        </CharString>
        <CharString name="cid12955" fdSelectIndex="2">
          endchar
        </CharString>
        <CharString name="cid12956" fdSelectIndex="2">
          endchar
        </CharString>
        <CharString name="cid12961" fdSelectIndex="2">
          endchar
        </CharString>
        <CharString name="cid12962" fdSelectIndex="2">
          endchar
        </CharString>
        <CharString name="cid12963" fdSelectIndex="2">
          endchar
        </CharString>
        <CharString name="cid12964" fdSelectIndex="2">
          endchar
        </CharString>
        <CharString name="cid12965" fdSelectIndex="2">
          endchar
        </CharString>
        <CharString name="cid12968" fdSelectIndex="2">
          endchar
        </CharString>
        <CharString name="cid12972" fdSelectIndex="2">
          endchar
        </CharString>
        <CharString name="cid12973" fdSelectIndex="2">
          endchar
        </CharString>
        <CharString name="cid12974" fdSelectIndex="2">
          endchar
        </CharString>
        <CharString name="cid12975" fdSelectIndex="2">
          endchar
        </CharString>
        <CharString name="cid12976" fdSelectIndex="2">
          endchar
        </CharString>
        <CharString name="cid13001" fdSelectIndex="2">
          endchar
        </CharString>
        <CharString name="cid13002" fdSelectIndex="2">
          endchar
        </CharString>
        <CharString name="cid13003" fdSelectIndex="2">
          endchar
        </CharString>
        <CharString name="cid13004" fdSelectIndex="2">
          endchar
        </CharString>
        <CharString name="cid13005" fdSelectIndex="2">
          endchar
        </CharString>
        <CharString name="cid13006" fdSelectIndex="2">
          endchar
        </CharString>
        <CharString name="cid13008" fdSelectIndex="2">
          endchar
        </CharString>
        <CharString name="cid13009" fdSelectIndex="2">
          endchar
        </CharString>
        <CharString name="cid13010" fdSelectIndex="2">
          endchar
        </CharString>
        <CharString name="cid13011" fdSelectIndex="2">
          endchar
        </CharString>
        <CharString name="cid13012" fdSelectIndex="2">
          endchar
        </CharString>
        <CharString name="cid13013" fdSelectIndex="2">
          endchar
        </CharString>
        <CharString name="cid13014" fdSelectIndex="2">
          endchar
        </CharString>
        <CharString name="cid13015" fdSelectIndex="2">
          endchar
        </CharString>
        <CharString name="cid13024" fdSelectIndex="2">
          endchar
        </CharString>
        <CharString name="cid13025" fdSelectIndex="2">
          endchar
        </CharString>
        <CharString name="cid13029" fdSelectIndex="2">
          endchar
        </CharString>
        <CharString name="cid13030" fdSelectIndex="2">
          endchar
        </CharString>
        <CharString name="cid13031" fdSelectIndex="2">
          endchar
        </CharString>
        <CharString name="cid13032" fdSelectIndex="2">
          endchar
        </CharString>
        <CharString name="cid13033" fdSelectIndex="2">
          endchar
        </CharString>
        <CharString name="cid13034" fdSelectIndex="2">
          endchar
        </CharString>
        <CharString name="cid13035" fdSelectIndex="2">
          endchar
        </CharString>
        <CharString name="cid13036" fdSelectIndex="2">
          endchar
        </CharString>
        <CharString name="cid13037" fdSelectIndex="2">
          endchar
        </CharString>
        <CharString name="cid13038" fdSelectIndex="2">
          endchar
        </CharString>
        <CharString name="cid13042" fdSelectIndex="2">
          endchar
        </CharString>
        <CharString name="cid13044" fdSelectIndex="2">
          endchar
        </CharString>
        <CharString name="cid13045" fdSelectIndex="2">
          endchar
        </CharString>
        <CharString name="cid13046" fdSelectIndex="2">
          endchar
        </CharString>
        <CharString name="cid13056" fdSelectIndex="2">
          endchar
        </CharString>
        <CharString name="cid13057" fdSelectIndex="2">
          endchar
        </CharString>
        <CharString name="cid13079" fdSelectIndex="2">
          endchar
        </CharString>
        <CharString name="cid13080" fdSelectIndex="2">
          endchar
        </CharString>
        <CharString name="cid13081" fdSelectIndex="2">
          endchar
        </CharString>
        <CharString name="cid13082" fdSelectIndex="2">
          endchar
        </CharString>
        <CharString name="cid13086" fdSelectIndex="2">
          endchar
        </CharString>
        <CharString name="cid13108" fdSelectIndex="2">
          endchar
        </CharString>
        <CharString name="cid13109" fdSelectIndex="2">
          endchar
        </CharString>
        <CharString name="cid13121" fdSelectIndex="2">
          endchar
        </CharString>
        <CharString name="cid13124" fdSelectIndex="2">
          endchar
        </CharString>
        <CharString name="cid13125" fdSelectIndex="2">
          endchar
        </CharString>
        <CharString name="cid13130" fdSelectIndex="2">
          endchar
        </CharString>
        <CharString name="cid13131" fdSelectIndex="2">
          endchar
        </CharString>
        <CharString name="cid13138" fdSelectIndex="2">
          endchar
        </CharString>
        <CharString name="cid13139" fdSelectIndex="2">
          endchar
        </CharString>
        <CharString name="cid13140" fdSelectIndex="2">
          endchar
        </CharString>
        <CharString name="cid13175" fdSelectIndex="2">
          endchar
        </CharString>
        <CharString name="cid13176" fdSelectIndex="2">
          endchar
        </CharString>
        <CharString name="cid13177" fdSelectIndex="2">
          endchar
        </CharString>
        <CharString name="cid13200" fdSelectIndex="2">
          endchar
        </CharString>
        <CharString name="cid13201" fdSelectIndex="2">
          endchar
        </CharString>
        <CharString name="cid13202" fdSelectIndex="2">
          endchar
        </CharString>
        <CharString name="cid13206" fdSelectIndex="2">
          endchar
        </CharString>
        <CharString name="cid13207" fdSelectIndex="2">
          endchar
        </CharString>
        <CharString name="cid13228" fdSelectIndex="2">
          endchar
        </CharString>
        <CharString name="cid13229" fdSelectIndex="2">
          endchar
        </CharString>
        <CharString name="cid13230" fdSelectIndex="2">
          endchar
        </CharString>
        <CharString name="cid13232" fdSelectIndex="2">
          endchar
        </CharString>
        <CharString name="cid13233" fdSelectIndex="2">
          endchar
        </CharString>
        <CharString name="cid13234" fdSelectIndex="2">
          endchar
        </CharString>
        <CharString name="cid13235" fdSelectIndex="2">
          endchar
        </CharString>
        <CharString name="cid13259" fdSelectIndex="2">
          endchar
        </CharString>
        <CharString name="cid13260" fdSelectIndex="2">
          endchar
        </CharString>
        <CharString name="cid13270" fdSelectIndex="2">
          endchar
        </CharString>
        <CharString name="cid13274" fdSelectIndex="2">
          endchar
        </CharString>
        <CharString name="cid13275" fdSelectIndex="2">
          endchar
        </CharString>
        <CharString name="cid13276" fdSelectIndex="2">
          endchar
        </CharString>
        <CharString name="cid13278" fdSelectIndex="2">
          endchar
        </CharString>
        <CharString name="cid13279" fdSelectIndex="2">
          endchar
        </CharString>
        <CharString name="cid13280" fdSelectIndex="2">
          endchar
        </CharString>
        <CharString name="cid13286" fdSelectIndex="2">
          endchar
        </CharString>
        <CharString name="cid13287" fdSelectIndex="2">
          endchar
        </CharString>
        <CharString name="cid13299" fdSelectIndex="2">
          endchar
        </CharString>
        <CharString name="cid13300" fdSelectIndex="2">
          endchar
        </CharString>
        <CharString name="cid13301" fdSelectIndex="2">
          endchar
        </CharString>
        <CharString name="cid13320" fdSelectIndex="2">
          endchar
        </CharString>
        <CharString name="cid13321" fdSelectIndex="2">
          endchar
        </CharString>
        <CharString name="cid13347" fdSelectIndex="2">
          endchar
        </CharString>
        <CharString name="cid13348" fdSelectIndex="2">
          endchar
        </CharString>
        <CharString name="cid13364" fdSelectIndex="2">
          endchar
        </CharString>
        <CharString name="cid13365" fdSelectIndex="2">
          endchar
        </CharString>
        <CharString name="cid13371" fdSelectIndex="2">
          endchar
        </CharString>
        <CharString name="cid13372" fdSelectIndex="2">
          endchar
        </CharString>
        <CharString name="cid13374" fdSelectIndex="2">
          endchar
        </CharString>
        <CharString name="cid13375" fdSelectIndex="2">
          endchar
        </CharString>
        <CharString name="cid13376" fdSelectIndex="2">
          endchar
        </CharString>
        <CharString name="cid13377" fdSelectIndex="2">
          endchar
        </CharString>
        <CharString name="cid13393" fdSelectIndex="2">
          endchar
        </CharString>
        <CharString name="cid13400" fdSelectIndex="2">
          endchar
        </CharString>
        <CharString name="cid13401" fdSelectIndex="2">
          endchar
        </CharString>
        <CharString name="cid13403" fdSelectIndex="2">
          endchar
        </CharString>
        <CharString name="cid13404" fdSelectIndex="2">
          endchar
        </CharString>
        <CharString name="cid13405" fdSelectIndex="2">
          endchar
        </CharString>
        <CharString name="cid13426" fdSelectIndex="2">
          endchar
        </CharString>
        <CharString name="cid13427" fdSelectIndex="2">
          endchar
        </CharString>
        <CharString name="cid13428" fdSelectIndex="2">
          endchar
        </CharString>
        <CharString name="cid13429" fdSelectIndex="2">
          endchar
        </CharString>
        <CharString name="cid13466" fdSelectIndex="2">
          endchar
        </CharString>
        <CharString name="cid13467" fdSelectIndex="2">
          endchar
        </CharString>
        <CharString name="cid13469" fdSelectIndex="2">
          endchar
        </CharString>
        <CharString name="cid13470" fdSelectIndex="2">
          endchar
        </CharString>
        <CharString name="cid13474" fdSelectIndex="2">
          endchar
        </CharString>
        <CharString name="cid13475" fdSelectIndex="2">
          endchar
        </CharString>
        <CharString name="cid13506" fdSelectIndex="2">
          endchar
        </CharString>
        <CharString name="cid13507" fdSelectIndex="2">
          endchar
        </CharString>
        <CharString name="cid13510" fdSelectIndex="2">
          endchar
        </CharString>
        <CharString name="cid13511" fdSelectIndex="2">
          endchar
        </CharString>
        <CharString name="cid13512" fdSelectIndex="2">
          endchar
        </CharString>
        <CharString name="cid13520" fdSelectIndex="2">
          endchar
        </CharString>
        <CharString name="cid13521" fdSelectIndex="2">
          endchar
        </CharString>
        <CharString name="cid13529" fdSelectIndex="2">
          endchar
        </CharString>
        <CharString name="cid13530" fdSelectIndex="2">
          endchar
        </CharString>
        <CharString name="cid13531" fdSelectIndex="2">
          endchar
        </CharString>
        <CharString name="cid13532" fdSelectIndex="2">
          endchar
        </CharString>
        <CharString name="cid13534" fdSelectIndex="2">
          endchar
        </CharString>
        <CharString name="cid13535" fdSelectIndex="2">
          endchar
        </CharString>
        <CharString name="cid13536" fdSelectIndex="2">
          endchar
        </CharString>
        <CharString name="cid13573" fdSelectIndex="2">
          endchar
        </CharString>
        <CharString name="cid13576" fdSelectIndex="2">
          endchar
        </CharString>
        <CharString name="cid13577" fdSelectIndex="2">
          endchar
        </CharString>
        <CharString name="cid13578" fdSelectIndex="2">
          endchar
        </CharString>
        <CharString name="cid13579" fdSelectIndex="2">
          endchar
        </CharString>
        <CharString name="cid13584" fdSelectIndex="2">
          endchar
        </CharString>
        <CharString name="cid13587" fdSelectIndex="2">
          endchar
        </CharString>
        <CharString name="cid13588" fdSelectIndex="2">
          endchar
        </CharString>
        <CharString name="cid13594" fdSelectIndex="2">
          endchar
        </CharString>
        <CharString name="cid13610" fdSelectIndex="2">
          endchar
        </CharString>
        <CharString name="cid13611" fdSelectIndex="2">
          endchar
        </CharString>
        <CharString name="cid13613" fdSelectIndex="2">
          endchar
        </CharString>
        <CharString name="cid13614" fdSelectIndex="2">
          endchar
        </CharString>
        <CharString name="cid13618" fdSelectIndex="2">
          endchar
        </CharString>
        <CharString name="cid13619" fdSelectIndex="2">
          endchar
        </CharString>
        <CharString name="cid13620" fdSelectIndex="2">
          endchar
        </CharString>
        <CharString name="cid13631" fdSelectIndex="2">
          endchar
        </CharString>
        <CharString name="cid13634" fdSelectIndex="2">
          endchar
        </CharString>
        <CharString name="cid13638" fdSelectIndex="2">
          endchar
        </CharString>
        <CharString name="cid13639" fdSelectIndex="2">
          endchar
        </CharString>
        <CharString name="cid13640" fdSelectIndex="2">
          endchar
        </CharString>
        <CharString name="cid13645" fdSelectIndex="2">
          endchar
        </CharString>
        <CharString name="cid13652" fdSelectIndex="2">
          endchar
        </CharString>
        <CharString name="cid13653" fdSelectIndex="2">
          endchar
        </CharString>
        <CharString name="cid13654" fdSelectIndex="2">
          endchar
        </CharString>
        <CharString name="cid13660" fdSelectIndex="2">
          endchar
        </CharString>
        <CharString name="cid13666" fdSelectIndex="2">
          endchar
        </CharString>
        <CharString name="cid13667" fdSelectIndex="2">
          endchar
        </CharString>
        <CharString name="cid13670" fdSelectIndex="2">
          endchar
        </CharString>
        <CharString name="cid13671" fdSelectIndex="2">
          endchar
        </CharString>
        <CharString name="cid13672" fdSelectIndex="2">
          endchar
        </CharString>
        <CharString name="cid13673" fdSelectIndex="2">
          endchar
        </CharString>
        <CharString name="cid13680" fdSelectIndex="2">
          endchar
        </CharString>
        <CharString name="cid13692" fdSelectIndex="2">
          endchar
        </CharString>
        <CharString name="cid13701" fdSelectIndex="2">
          endchar
        </CharString>
        <CharString name="cid13702" fdSelectIndex="2">
          endchar
        </CharString>
        <CharString name="cid13703" fdSelectIndex="2">
          endchar
        </CharString>
        <CharString name="cid13704" fdSelectIndex="2">
          endchar
        </CharString>
        <CharString name="cid13710" fdSelectIndex="2">
          endchar
        </CharString>
        <CharString name="cid13713" fdSelectIndex="2">
          endchar
        </CharString>
        <CharString name="cid13714" fdSelectIndex="2">
          endchar
        </CharString>
        <CharString name="cid13723" fdSelectIndex="2">
          endchar
        </CharString>
        <CharString name="cid13724" fdSelectIndex="2">
          endchar
        </CharString>
        <CharString name="cid13727" fdSelectIndex="2">
          endchar
        </CharString>
        <CharString name="cid13728" fdSelectIndex="2">
          endchar
        </CharString>
        <CharString name="cid13735" fdSelectIndex="2">
          endchar
        </CharString>
        <CharString name="cid13737" fdSelectIndex="2">
          endchar
        </CharString>
        <CharString name="cid13738" fdSelectIndex="2">
          endchar
        </CharString>
        <CharString name="cid13745" fdSelectIndex="2">
          endchar
        </CharString>
        <CharString name="cid13746" fdSelectIndex="2">
          endchar
        </CharString>
        <CharString name="cid13747" fdSelectIndex="2">
          endchar
        </CharString>
        <CharString name="cid13750" fdSelectIndex="2">
          endchar
        </CharString>
        <CharString name="cid13751" fdSelectIndex="2">
          endchar
        </CharString>
        <CharString name="cid13758" fdSelectIndex="2">
          endchar
        </CharString>
        <CharString name="cid13759" fdSelectIndex="2">
          endchar
        </CharString>
        <CharString name="cid13760" fdSelectIndex="2">
          endchar
        </CharString>
        <CharString name="cid13761" fdSelectIndex="2">
          endchar
        </CharString>
        <CharString name="cid13762" fdSelectIndex="2">
          endchar
        </CharString>
        <CharString name="cid13763" fdSelectIndex="2">
          endchar
        </CharString>
        <CharString name="cid13764" fdSelectIndex="2">
          endchar
        </CharString>
        <CharString name="cid13783" fdSelectIndex="2">
          endchar
        </CharString>
        <CharString name="cid13787" fdSelectIndex="2">
          endchar
        </CharString>
        <CharString name="cid13789" fdSelectIndex="2">
          endchar
        </CharString>
        <CharString name="cid13790" fdSelectIndex="2">
          endchar
        </CharString>
        <CharString name="cid13794" fdSelectIndex="2">
          endchar
        </CharString>
        <CharString name="cid13795" fdSelectIndex="2">
          endchar
        </CharString>
        <CharString name="cid13832" fdSelectIndex="2">
          endchar
        </CharString>
        <CharString name="cid13835" fdSelectIndex="2">
          endchar
        </CharString>
        <CharString name="cid13836" fdSelectIndex="2">
          endchar
        </CharString>
        <CharString name="cid13837" fdSelectIndex="2">
          endchar
        </CharString>
        <CharString name="cid13845" fdSelectIndex="2">
          endchar
        </CharString>
        <CharString name="cid13847" fdSelectIndex="2">
          endchar
        </CharString>
        <CharString name="cid13857" fdSelectIndex="2">
          endchar
        </CharString>
        <CharString name="cid13858" fdSelectIndex="2">
          endchar
        </CharString>
        <CharString name="cid13879" fdSelectIndex="2">
          endchar
        </CharString>
        <CharString name="cid13880" fdSelectIndex="2">
          endchar
        </CharString>
        <CharString name="cid13882" fdSelectIndex="2">
          endchar
        </CharString>
        <CharString name="cid13883" fdSelectIndex="2">
          endchar
        </CharString>
        <CharString name="cid13884" fdSelectIndex="2">
          endchar
        </CharString>
        <CharString name="cid13885" fdSelectIndex="2">
          endchar
        </CharString>
        <CharString name="cid13886" fdSelectIndex="2">
          endchar
        </CharString>
        <CharString name="cid13887" fdSelectIndex="2">
          endchar
        </CharString>
        <CharString name="cid13895" fdSelectIndex="2">
          endchar
        </CharString>
        <CharString name="cid13902" fdSelectIndex="2">
          endchar
        </CharString>
        <CharString name="cid13905" fdSelectIndex="2">
          endchar
        </CharString>
        <CharString name="cid13928" fdSelectIndex="2">
          endchar
        </CharString>
        <CharString name="cid13929" fdSelectIndex="2">
          endchar
        </CharString>
        <CharString name="cid13930" fdSelectIndex="2">
          endchar
        </CharString>
        <CharString name="cid13941" fdSelectIndex="2">
          endchar
        </CharString>
        <CharString name="cid13945" fdSelectIndex="2">
          endchar
        </CharString>
        <CharString name="cid13953" fdSelectIndex="2">
          endchar
        </CharString>
        <CharString name="cid13954" fdSelectIndex="2">
          endchar
        </CharString>
        <CharString name="cid13957" fdSelectIndex="2">
          endchar
        </CharString>
        <CharString name="cid13968" fdSelectIndex="2">
          endchar
        </CharString>
        <CharString name="cid13974" fdSelectIndex="2">
          endchar
        </CharString>
        <CharString name="cid13975" fdSelectIndex="2">
          endchar
        </CharString>
        <CharString name="cid13978" fdSelectIndex="2">
          endchar
        </CharString>
        <CharString name="cid13979" fdSelectIndex="2">
          endchar
        </CharString>
        <CharString name="cid14009" fdSelectIndex="2">
          endchar
        </CharString>
        <CharString name="cid14010" fdSelectIndex="2">
          endchar
        </CharString>
        <CharString name="cid14017" fdSelectIndex="2">
          endchar
        </CharString>
        <CharString name="cid14018" fdSelectIndex="2">
          endchar
        </CharString>
        <CharString name="cid14021" fdSelectIndex="2">
          endchar
        </CharString>
        <CharString name="cid14022" fdSelectIndex="2">
          endchar
        </CharString>
        <CharString name="cid14023" fdSelectIndex="2">
          endchar
        </CharString>
        <CharString name="cid14026" fdSelectIndex="2">
          endchar
        </CharString>
        <CharString name="cid14033" fdSelectIndex="2">
          endchar
        </CharString>
        <CharString name="cid14034" fdSelectIndex="2">
          endchar
        </CharString>
        <CharString name="cid14036" fdSelectIndex="2">
          endchar
        </CharString>
        <CharString name="cid14041" fdSelectIndex="2">
          endchar
        </CharString>
        <CharString name="cid14042" fdSelectIndex="2">
          endchar
        </CharString>
        <CharString name="cid14043" fdSelectIndex="2">
          endchar
        </CharString>
        <CharString name="cid14044" fdSelectIndex="2">
          endchar
        </CharString>
        <CharString name="cid14051" fdSelectIndex="2">
          endchar
        </CharString>
        <CharString name="cid14052" fdSelectIndex="2">
          endchar
        </CharString>
        <CharString name="cid14065" fdSelectIndex="2">
          endchar
        </CharString>
        <CharString name="cid14070" fdSelectIndex="2">
          endchar
        </CharString>
        <CharString name="cid14071" fdSelectIndex="2">
          endchar
        </CharString>
        <CharString name="cid14075" fdSelectIndex="2">
          endchar
        </CharString>
        <CharString name="cid14076" fdSelectIndex="2">
          endchar
        </CharString>
        <CharString name="cid14083" fdSelectIndex="2">
          endchar
        </CharString>
        <CharString name="cid14084" fdSelectIndex="2">
          endchar
        </CharString>
        <CharString name="cid14089" fdSelectIndex="2">
          endchar
        </CharString>
        <CharString name="cid14100" fdSelectIndex="2">
          endchar
        </CharString>
        <CharString name="cid14101" fdSelectIndex="2">
          endchar
        </CharString>
        <CharString name="cid14102" fdSelectIndex="2">
          endchar
        </CharString>
        <CharString name="cid14108" fdSelectIndex="2">
          endchar
        </CharString>
        <CharString name="cid14109" fdSelectIndex="2">
          endchar
        </CharString>
        <CharString name="cid14110" fdSelectIndex="2">
          endchar
        </CharString>
        <CharString name="cid14111" fdSelectIndex="2">
          endchar
        </CharString>
        <CharString name="cid14112" fdSelectIndex="2">
          endchar
        </CharString>
        <CharString name="cid14113" fdSelectIndex="2">
          endchar
        </CharString>
        <CharString name="cid14117" fdSelectIndex="2">
          endchar
        </CharString>
        <CharString name="cid14118" fdSelectIndex="2">
          endchar
        </CharString>
        <CharString name="cid14119" fdSelectIndex="2">
          endchar
        </CharString>
        <CharString name="cid14126" fdSelectIndex="2">
          endchar
        </CharString>
        <CharString name="cid14133" fdSelectIndex="2">
          endchar
        </CharString>
        <CharString name="cid14134" fdSelectIndex="2">
          endchar
        </CharString>
        <CharString name="cid14135" fdSelectIndex="2">
          endchar
        </CharString>
        <CharString name="cid14136" fdSelectIndex="2">
          endchar
        </CharString>
        <CharString name="cid14148" fdSelectIndex="2">
          endchar
        </CharString>
        <CharString name="cid14149" fdSelectIndex="2">
          endchar
        </CharString>
        <CharString name="cid14150" fdSelectIndex="2">
          endchar
        </CharString>
        <CharString name="cid14164" fdSelectIndex="2">
          endchar
        </CharString>
        <CharString name="cid14165" fdSelectIndex="2">
          endchar
        </CharString>
        <CharString name="cid14166" fdSelectIndex="2">
          endchar
        </CharString>
        <CharString name="cid14171" fdSelectIndex="2">
          endchar
        </CharString>
        <CharString name="cid14172" fdSelectIndex="2">
          endchar
        </CharString>
        <CharString name="cid14173" fdSelectIndex="2">
          endchar
        </CharString>
        <CharString name="cid14178" fdSelectIndex="2">
          endchar
        </CharString>
        <CharString name="cid14179" fdSelectIndex="2">
          endchar
        </CharString>
        <CharString name="cid14180" fdSelectIndex="2">
          endchar
        </CharString>
        <CharString name="cid14181" fdSelectIndex="2">
          endchar
        </CharString>
        <CharString name="cid14182" fdSelectIndex="2">
          endchar
        </CharString>
        <CharString name="cid14183" fdSelectIndex="2">
          endchar
        </CharString>
        <CharString name="cid14184" fdSelectIndex="2">
          endchar
        </CharString>
        <CharString name="cid14185" fdSelectIndex="2">
          endchar
        </CharString>
        <CharString name="cid14186" fdSelectIndex="2">
          endchar
        </CharString>
        <CharString name="cid14187" fdSelectIndex="2">
          endchar
        </CharString>
        <CharString name="cid14192" fdSelectIndex="2">
          endchar
        </CharString>
        <CharString name="cid14193" fdSelectIndex="2">
          endchar
        </CharString>
        <CharString name="cid14198" fdSelectIndex="2">
          endchar
        </CharString>
        <CharString name="cid14199" fdSelectIndex="2">
          endchar
        </CharString>
        <CharString name="cid14209" fdSelectIndex="2">
          endchar
        </CharString>
        <CharString name="cid14210" fdSelectIndex="2">
          endchar
        </CharString>
        <CharString name="cid14212" fdSelectIndex="2">
          endchar
        </CharString>
        <CharString name="cid14213" fdSelectIndex="2">
          endchar
        </CharString>
        <CharString name="cid14226" fdSelectIndex="2">
          endchar
        </CharString>
        <CharString name="cid14227" fdSelectIndex="2">
          endchar
        </CharString>
        <CharString name="cid14228" fdSelectIndex="2">
          endchar
        </CharString>
        <CharString name="cid14234" fdSelectIndex="2">
          endchar
        </CharString>
        <CharString name="cid14235" fdSelectIndex="2">
          endchar
        </CharString>
        <CharString name="cid14242" fdSelectIndex="2">
          endchar
        </CharString>
        <CharString name="cid14243" fdSelectIndex="2">
          endchar
        </CharString>
        <CharString name="cid14254" fdSelectIndex="2">
          endchar
        </CharString>
        <CharString name="cid14255" fdSelectIndex="2">
          endchar
        </CharString>
        <CharString name="cid14284" fdSelectIndex="2">
          endchar
        </CharString>
        <CharString name="cid14285" fdSelectIndex="2">
          endchar
        </CharString>
        <CharString name="cid14291" fdSelectIndex="2">
          endchar
        </CharString>
        <CharString name="cid14292" fdSelectIndex="2">
          endchar
        </CharString>
        <CharString name="cid14298" fdSelectIndex="2">
          endchar
        </CharString>
        <CharString name="cid14299" fdSelectIndex="2">
          endchar
        </CharString>
        <CharString name="cid14303" fdSelectIndex="2">
          endchar
        </CharString>
        <CharString name="cid14304" fdSelectIndex="2">
          endchar
        </CharString>
        <CharString name="cid14305" fdSelectIndex="2">
          endchar
        </CharString>
        <CharString name="cid14318" fdSelectIndex="2">
          endchar
        </CharString>
        <CharString name="cid14319" fdSelectIndex="2">
          endchar
        </CharString>
        <CharString name="cid14337" fdSelectIndex="2">
          endchar
        </CharString>
        <CharString name="cid14344" fdSelectIndex="2">
          endchar
        </CharString>
        <CharString name="cid14345" fdSelectIndex="2">
          endchar
        </CharString>
        <CharString name="cid14347" fdSelectIndex="2">
          endchar
        </CharString>
        <CharString name="cid14348" fdSelectIndex="2">
          endchar
        </CharString>
        <CharString name="cid14349" fdSelectIndex="2">
          endchar
        </CharString>
        <CharString name="cid14354" fdSelectIndex="2">
          endchar
        </CharString>
        <CharString name="cid14355" fdSelectIndex="2">
          endchar
        </CharString>
        <CharString name="cid14358" fdSelectIndex="2">
          endchar
        </CharString>
        <CharString name="cid14359" fdSelectIndex="2">
          endchar
        </CharString>
        <CharString name="cid14365" fdSelectIndex="2">
          endchar
        </CharString>
        <CharString name="cid14366" fdSelectIndex="2">
          endchar
        </CharString>
        <CharString name="cid14369" fdSelectIndex="2">
          endchar
        </CharString>
        <CharString name="cid14370" fdSelectIndex="2">
          endchar
        </CharString>
        <CharString name="cid14376" fdSelectIndex="2">
          endchar
        </CharString>
        <CharString name="cid14377" fdSelectIndex="2">
          endchar
        </CharString>
        <CharString name="cid14379" fdSelectIndex="2">
          endchar
        </CharString>
        <CharString name="cid14380" fdSelectIndex="2">
          endchar
        </CharString>
        <CharString name="cid14392" fdSelectIndex="2">
          endchar
        </CharString>
        <CharString name="cid14393" fdSelectIndex="2">
          endchar
        </CharString>
        <CharString name="cid14394" fdSelectIndex="2">
          endchar
        </CharString>
        <CharString name="cid14396" fdSelectIndex="2">
          endchar
        </CharString>
        <CharString name="cid14397" fdSelectIndex="2">
          endchar
        </CharString>
        <CharString name="cid14401" fdSelectIndex="2">
          endchar
        </CharString>
        <CharString name="cid14408" fdSelectIndex="2">
          endchar
        </CharString>
        <CharString name="cid14409" fdSelectIndex="2">
          endchar
        </CharString>
        <CharString name="cid14410" fdSelectIndex="2">
          endchar
        </CharString>
        <CharString name="cid14414" fdSelectIndex="2">
          endchar
        </CharString>
        <CharString name="cid14415" fdSelectIndex="2">
          endchar
        </CharString>
        <CharString name="cid14428" fdSelectIndex="2">
          endchar
        </CharString>
        <CharString name="cid14429" fdSelectIndex="2">
          endchar
        </CharString>
        <CharString name="cid14438" fdSelectIndex="2">
          endchar
        </CharString>
        <CharString name="cid14439" fdSelectIndex="2">
          endchar
        </CharString>
        <CharString name="cid14440" fdSelectIndex="2">
          endchar
        </CharString>
        <CharString name="cid14442" fdSelectIndex="2">
          endchar
        </CharString>
        <CharString name="cid14443" fdSelectIndex="2">
          endchar
        </CharString>
        <CharString name="cid14444" fdSelectIndex="2">
          endchar
        </CharString>
        <CharString name="cid14445" fdSelectIndex="2">
          endchar
        </CharString>
        <CharString name="cid14446" fdSelectIndex="2">
          endchar
        </CharString>
        <CharString name="cid14447" fdSelectIndex="2">
          endchar
        </CharString>
        <CharString name="cid14448" fdSelectIndex="2">
          endchar
        </CharString>
        <CharString name="cid14454" fdSelectIndex="2">
          endchar
        </CharString>
        <CharString name="cid14456" fdSelectIndex="2">
          endchar
        </CharString>
        <CharString name="cid14457" fdSelectIndex="2">
          endchar
        </CharString>
        <CharString name="cid14458" fdSelectIndex="2">
          endchar
        </CharString>
        <CharString name="cid14459" fdSelectIndex="2">
          endchar
        </CharString>
        <CharString name="cid14461" fdSelectIndex="2">
          endchar
        </CharString>
        <CharString name="cid14467" fdSelectIndex="2">
          endchar
        </CharString>
        <CharString name="cid14476" fdSelectIndex="2">
          endchar
        </CharString>
        <CharString name="cid14477" fdSelectIndex="2">
          endchar
        </CharString>
        <CharString name="cid14478" fdSelectIndex="2">
          endchar
        </CharString>
        <CharString name="cid14489" fdSelectIndex="2">
          endchar
        </CharString>
        <CharString name="cid14490" fdSelectIndex="2">
          endchar
        </CharString>
        <CharString name="cid14503" fdSelectIndex="2">
          endchar
        </CharString>
        <CharString name="cid14504" fdSelectIndex="2">
          endchar
        </CharString>
        <CharString name="cid14505" fdSelectIndex="2">
          endchar
        </CharString>
        <CharString name="cid14506" fdSelectIndex="2">
          endchar
        </CharString>
        <CharString name="cid14507" fdSelectIndex="2">
          endchar
        </CharString>
        <CharString name="cid14510" fdSelectIndex="2">
          endchar
        </CharString>
        <CharString name="cid14511" fdSelectIndex="2">
          endchar
        </CharString>
        <CharString name="cid14512" fdSelectIndex="2">
          endchar
        </CharString>
        <CharString name="cid14513" fdSelectIndex="2">
          endchar
        </CharString>
        <CharString name="cid14514" fdSelectIndex="2">
          endchar
        </CharString>
        <CharString name="cid14515" fdSelectIndex="2">
          endchar
        </CharString>
        <CharString name="cid14516" fdSelectIndex="2">
          endchar
        </CharString>
        <CharString name="cid14517" fdSelectIndex="2">
          endchar
        </CharString>
        <CharString name="cid14520" fdSelectIndex="2">
          endchar
        </CharString>
        <CharString name="cid14521" fdSelectIndex="2">
          endchar
        </CharString>
        <CharString name="cid14532" fdSelectIndex="2">
          endchar
        </CharString>
        <CharString name="cid14533" fdSelectIndex="2">
          endchar
        </CharString>
        <CharString name="cid14534" fdSelectIndex="2">
          endchar
        </CharString>
        <CharString name="cid14540" fdSelectIndex="2">
          endchar
        </CharString>
        <CharString name="cid14541" fdSelectIndex="2">
          endchar
        </CharString>
        <CharString name="cid14542" fdSelectIndex="2">
          endchar
        </CharString>
        <CharString name="cid14544" fdSelectIndex="2">
          endchar
        </CharString>
        <CharString name="cid14547" fdSelectIndex="2">
          endchar
        </CharString>
        <CharString name="cid14548" fdSelectIndex="2">
          endchar
        </CharString>
        <CharString name="cid14549" fdSelectIndex="2">
          endchar
        </CharString>
        <CharString name="cid14550" fdSelectIndex="2">
          endchar
        </CharString>
        <CharString name="cid14551" fdSelectIndex="2">
          endchar
        </CharString>
        <CharString name="cid14552" fdSelectIndex="2">
          endchar
        </CharString>
        <CharString name="cid14553" fdSelectIndex="2">
          endchar
        </CharString>
        <CharString name="cid14554" fdSelectIndex="2">
          endchar
        </CharString>
        <CharString name="cid14555" fdSelectIndex="2">
          endchar
        </CharString>
        <CharString name="cid14556" fdSelectIndex="2">
          endchar
        </CharString>
        <CharString name="cid14559" fdSelectIndex="2">
          endchar
        </CharString>
        <CharString name="cid14566" fdSelectIndex="2">
          endchar
        </CharString>
        <CharString name="cid14567" fdSelectIndex="2">
          endchar
        </CharString>
        <CharString name="cid14568" fdSelectIndex="2">
          endchar
        </CharString>
        <CharString name="cid14569" fdSelectIndex="2">
          endchar
        </CharString>
        <CharString name="cid14576" fdSelectIndex="2">
          endchar
        </CharString>
        <CharString name="cid14583" fdSelectIndex="2">
          endchar
        </CharString>
        <CharString name="cid14584" fdSelectIndex="2">
          endchar
        </CharString>
        <CharString name="cid14588" fdSelectIndex="2">
          endchar
        </CharString>
        <CharString name="cid14589" fdSelectIndex="2">
          endchar
        </CharString>
        <CharString name="cid14590" fdSelectIndex="2">
          endchar
        </CharString>
        <CharString name="cid14591" fdSelectIndex="2">
          endchar
        </CharString>
        <CharString name="cid14592" fdSelectIndex="2">
          endchar
        </CharString>
        <CharString name="cid14598" fdSelectIndex="2">
          endchar
        </CharString>
        <CharString name="cid14599" fdSelectIndex="2">
          endchar
        </CharString>
        <CharString name="cid14600" fdSelectIndex="2">
          endchar
        </CharString>
        <CharString name="cid14601" fdSelectIndex="2">
          endchar
        </CharString>
        <CharString name="cid14602" fdSelectIndex="2">
          endchar
        </CharString>
        <CharString name="cid14603" fdSelectIndex="2">
          endchar
        </CharString>
        <CharString name="cid14604" fdSelectIndex="2">
          endchar
        </CharString>
        <CharString name="cid14605" fdSelectIndex="2">
          endchar
        </CharString>
        <CharString name="cid14606" fdSelectIndex="2">
          endchar
        </CharString>
        <CharString name="cid14607" fdSelectIndex="2">
          endchar
        </CharString>
        <CharString name="cid14613" fdSelectIndex="2">
          endchar
        </CharString>
        <CharString name="cid14614" fdSelectIndex="2">
          endchar
        </CharString>
        <CharString name="cid14615" fdSelectIndex="2">
          endchar
        </CharString>
        <CharString name="cid14616" fdSelectIndex="2">
          endchar
        </CharString>
        <CharString name="cid14618" fdSelectIndex="2">
          endchar
        </CharString>
        <CharString name="cid14619" fdSelectIndex="2">
          endchar
        </CharString>
        <CharString name="cid14620" fdSelectIndex="2">
          endchar
        </CharString>
        <CharString name="cid14621" fdSelectIndex="2">
          endchar
        </CharString>
        <CharString name="cid14636" fdSelectIndex="2">
          endchar
        </CharString>
        <CharString name="cid14637" fdSelectIndex="2">
          endchar
        </CharString>
        <CharString name="cid14638" fdSelectIndex="2">
          endchar
        </CharString>
        <CharString name="cid14640" fdSelectIndex="2">
          endchar
        </CharString>
        <CharString name="cid14641" fdSelectIndex="2">
          endchar
        </CharString>
        <CharString name="cid14644" fdSelectIndex="2">
          endchar
        </CharString>
        <CharString name="cid14645" fdSelectIndex="2">
          endchar
        </CharString>
        <CharString name="cid14646" fdSelectIndex="2">
          endchar
        </CharString>
        <CharString name="cid14648" fdSelectIndex="2">
          endchar
        </CharString>
        <CharString name="cid14649" fdSelectIndex="2">
          endchar
        </CharString>
        <CharString name="cid14650" fdSelectIndex="2">
          endchar
        </CharString>
        <CharString name="cid14653" fdSelectIndex="2">
          endchar
        </CharString>
        <CharString name="cid14654" fdSelectIndex="2">
          endchar
        </CharString>
        <CharString name="cid14657" fdSelectIndex="2">
          endchar
        </CharString>
        <CharString name="cid14658" fdSelectIndex="2">
          endchar
        </CharString>
        <CharString name="cid14660" fdSelectIndex="2">
          endchar
        </CharString>
        <CharString name="cid14661" fdSelectIndex="2">
          endchar
        </CharString>
        <CharString name="cid14669" fdSelectIndex="2">
          endchar
        </CharString>
        <CharString name="cid14670" fdSelectIndex="2">
          endchar
        </CharString>
        <CharString name="cid14671" fdSelectIndex="2">
          endchar
        </CharString>
        <CharString name="cid14672" fdSelectIndex="2">
          endchar
        </CharString>
        <CharString name="cid14673" fdSelectIndex="2">
          endchar
        </CharString>
        <CharString name="cid14674" fdSelectIndex="2">
          endchar
        </CharString>
        <CharString name="cid14683" fdSelectIndex="2">
          endchar
        </CharString>
        <CharString name="cid14684" fdSelectIndex="2">
          endchar
        </CharString>
        <CharString name="cid14685" fdSelectIndex="2">
          endchar
        </CharString>
        <CharString name="cid14696" fdSelectIndex="2">
          endchar
        </CharString>
        <CharString name="cid14697" fdSelectIndex="2">
          endchar
        </CharString>
        <CharString name="cid14698" fdSelectIndex="2">
          endchar
        </CharString>
        <CharString name="cid14705" fdSelectIndex="2">
          endchar
        </CharString>
        <CharString name="cid14706" fdSelectIndex="2">
          endchar
        </CharString>
        <CharString name="cid14707" fdSelectIndex="2">
          endchar
        </CharString>
        <CharString name="cid14708" fdSelectIndex="2">
          endchar
        </CharString>
        <CharString name="cid14709" fdSelectIndex="2">
          endchar
        </CharString>
        <CharString name="cid14710" fdSelectIndex="2">
          endchar
        </CharString>
        <CharString name="cid14711" fdSelectIndex="2">
          endchar
        </CharString>
        <CharString name="cid14712" fdSelectIndex="2">
          endchar
        </CharString>
        <CharString name="cid14713" fdSelectIndex="2">
          endchar
        </CharString>
        <CharString name="cid14714" fdSelectIndex="2">
          endchar
        </CharString>
        <CharString name="cid14715" fdSelectIndex="2">
          endchar
        </CharString>
        <CharString name="cid14716" fdSelectIndex="2">
          endchar
        </CharString>
        <CharString name="cid14724" fdSelectIndex="2">
          endchar
        </CharString>
        <CharString name="cid14725" fdSelectIndex="2">
          endchar
        </CharString>
        <CharString name="cid14726" fdSelectIndex="2">
          endchar
        </CharString>
        <CharString name="cid14746" fdSelectIndex="2">
          endchar
        </CharString>
        <CharString name="cid14747" fdSelectIndex="2">
          endchar
        </CharString>
        <CharString name="cid14748" fdSelectIndex="2">
          endchar
        </CharString>
        <CharString name="cid14753" fdSelectIndex="2">
          endchar
        </CharString>
        <CharString name="cid14754" fdSelectIndex="2">
          endchar
        </CharString>
        <CharString name="cid14755" fdSelectIndex="2">
          endchar
        </CharString>
        <CharString name="cid14761" fdSelectIndex="2">
          endchar
        </CharString>
        <CharString name="cid14762" fdSelectIndex="2">
          endchar
        </CharString>
        <CharString name="cid14763" fdSelectIndex="2">
          endchar
        </CharString>
        <CharString name="cid14783" fdSelectIndex="2">
          endchar
        </CharString>
        <CharString name="cid14784" fdSelectIndex="2">
          endchar
        </CharString>
        <CharString name="cid14785" fdSelectIndex="2">
          endchar
        </CharString>
        <CharString name="cid14789" fdSelectIndex="2">
          endchar
        </CharString>
        <CharString name="cid14790" fdSelectIndex="2">
          endchar
        </CharString>
        <CharString name="cid14791" fdSelectIndex="2">
          endchar
        </CharString>
        <CharString name="cid14797" fdSelectIndex="2">
          endchar
        </CharString>
        <CharString name="cid14798" fdSelectIndex="2">
          endchar
        </CharString>
        <CharString name="cid14799" fdSelectIndex="2">
          endchar
        </CharString>
        <CharString name="cid14803" fdSelectIndex="2">
          endchar
        </CharString>
        <CharString name="cid14804" fdSelectIndex="2">
          endchar
        </CharString>
        <CharString name="cid14805" fdSelectIndex="2">
          endchar
        </CharString>
        <CharString name="cid14819" fdSelectIndex="2">
          endchar
        </CharString>
        <CharString name="cid14820" fdSelectIndex="2">
          endchar
        </CharString>
        <CharString name="cid14821" fdSelectIndex="2">
          endchar
        </CharString>
        <CharString name="cid14836" fdSelectIndex="2">
          endchar
        </CharString>
        <CharString name="cid14837" fdSelectIndex="2">
          endchar
        </CharString>
        <CharString name="cid14838" fdSelectIndex="2">
          endchar
        </CharString>
        <CharString name="cid14842" fdSelectIndex="2">
          endchar
        </CharString>
        <CharString name="cid14843" fdSelectIndex="2">
          endchar
        </CharString>
        <CharString name="cid14844" fdSelectIndex="2">
          endchar
        </CharString>
        <CharString name="cid14850" fdSelectIndex="2">
          endchar
        </CharString>
        <CharString name="cid14851" fdSelectIndex="2">
          endchar
        </CharString>
        <CharString name="cid14852" fdSelectIndex="2">
          endchar
        </CharString>
        <CharString name="cid14869" fdSelectIndex="2">
          endchar
        </CharString>
        <CharString name="cid14870" fdSelectIndex="2">
          endchar
        </CharString>
        <CharString name="cid14871" fdSelectIndex="2">
          endchar
        </CharString>
        <CharString name="cid14877" fdSelectIndex="2">
          endchar
        </CharString>
        <CharString name="cid14878" fdSelectIndex="2">
          endchar
        </CharString>
        <CharString name="cid14879" fdSelectIndex="2">
          endchar
        </CharString>
        <CharString name="cid14883" fdSelectIndex="2">
          endchar
        </CharString>
        <CharString name="cid14884" fdSelectIndex="2">
          endchar
        </CharString>
        <CharString name="cid14885" fdSelectIndex="2">
          endchar
        </CharString>
        <CharString name="cid14895" fdSelectIndex="2">
          endchar
        </CharString>
        <CharString name="cid14896" fdSelectIndex="2">
          endchar
        </CharString>
        <CharString name="cid14897" fdSelectIndex="2">
          endchar
        </CharString>
        <CharString name="cid14898" fdSelectIndex="2">
          endchar
        </CharString>
        <CharString name="cid14899" fdSelectIndex="2">
          endchar
        </CharString>
        <CharString name="cid14900" fdSelectIndex="2">
          endchar
        </CharString>
        <CharString name="cid14904" fdSelectIndex="2">
          endchar
        </CharString>
        <CharString name="cid14905" fdSelectIndex="2">
          endchar
        </CharString>
        <CharString name="cid14906" fdSelectIndex="2">
          endchar
        </CharString>
        <CharString name="cid14907" fdSelectIndex="2">
          endchar
        </CharString>
        <CharString name="cid14908" fdSelectIndex="2">
          endchar
        </CharString>
        <CharString name="cid14909" fdSelectIndex="2">
          endchar
        </CharString>
        <CharString name="cid14919" fdSelectIndex="2">
          endchar
        </CharString>
        <CharString name="cid14920" fdSelectIndex="2">
          endchar
        </CharString>
        <CharString name="cid14921" fdSelectIndex="2">
          endchar
        </CharString>
        <CharString name="cid14924" fdSelectIndex="2">
          endchar
        </CharString>
        <CharString name="cid14925" fdSelectIndex="2">
          endchar
        </CharString>
        <CharString name="cid14926" fdSelectIndex="2">
          endchar
        </CharString>
        <CharString name="cid14946" fdSelectIndex="2">
          endchar
        </CharString>
        <CharString name="cid14947" fdSelectIndex="2">
          endchar
        </CharString>
        <CharString name="cid14948" fdSelectIndex="2">
          endchar
        </CharString>
        <CharString name="cid14949" fdSelectIndex="2">
          endchar
        </CharString>
        <CharString name="cid14950" fdSelectIndex="2">
          endchar
        </CharString>
</ttFont>
